<svg width="354" height="484" viewBox="0 0 354 484" fill="none" xmlns="http://www.w3.org/2000/svg">
<rect width="354" height="484" fill="#14890F"/>
<mask id="mask0" mask-type="alpha" maskUnits="userSpaceOnUse" x="0" y="0" width="354" height="484">
<rect width="354" height="484" fill="white"/>
</mask>
<g mask="url(#mask0)">
<path d="M559.267 -15.3767C555.067 -18.5448 549.578 -19.5299 544.503 -18.0858C544.346 -18.041 530.702 -14.1901 509.754 -14.1901C465.472 -14.1901 401.34 -30.5006 347.301 -108.224C341.017 -117.259 325.995 -117.259 319.71 -108.224C265.671 -30.5006 201.539 -14.1901 157.257 -14.1901C136.298 -14.1901 122.642 -18.041 122.575 -18.0634C117.501 -19.5747 112.012 -18.5895 107.744 -15.4215C103.498 -12.2534 101 -7.26062 101 -1.97678V156.079C101 376.691 326.79 440.78 329.064 441.407C330.509 441.798 331.999 442 333.489 442C334.979 442 336.469 441.798 337.914 441.407C340.21 440.769 566 376.691 566 156.079V-1.97678C566.011 -7.23824 563.491 -12.2086 559.267 -15.3767Z" fill="#660566"/>
</g>
</svg>
