<svg id="Layer_1" data-name="Layer 1" xmlns="http://www.w3.org/2000/svg" xmlns:xlink="http://www.w3.org/1999/xlink" viewBox="0 0 118 118"><defs><style>.cls-1{fill:none;}.cls-2{clip-path:url(#clip-path);}.cls-3{fill:#dbe1e8;}</style><clipPath id="clip-path"><rect class="cls-1" width="118" height="118"/></clipPath></defs><g class="cls-2"><path class="cls-3" d="M61,4.06a57,57,0,0,0-26.16,6.37L25.46,1a3.46,3.46,0,0,0-5.69,1.24L15,15,2.25,19.77A3.46,3.46,0,0,0,1,25.46l9.42,9.41A57,57,0,1,0,61,4.06Zm0,75.72A18.75,18.75,0,1,0,50.45,45.56l-8.7-8.71a31,31,0,1,1-4.9,4.9l8.71,8.7A18.74,18.74,0,0,0,61,79.78Zm2.45-21.2-8-8a11.85,11.85,0,1,1-4.89,4.89l8,8a3.46,3.46,0,1,0,4.9-4.9ZM24.37,9.72,36,21.37l-1.5,8.26-12.8-12.8ZM9.72,24.37l7.11-2.65,12.8,12.8L21.37,36ZM61,111.08a50,50,0,0,1-45.43-71l2.15,2.15a3.49,3.49,0,0,0,2.45,1,4.32,4.32,0,0,0,.62-.05l7.63-1.39A37.89,37.89,0,1,0,41.77,28.45l1.39-7.63a3.49,3.49,0,0,0-1-3.07L40.05,15.6a50,50,0,1,1,21,95.48Z"/></g></svg>