<svg id="Layer_1" data-name="Layer 1" xmlns="http://www.w3.org/2000/svg" xmlns:xlink="http://www.w3.org/1999/xlink" viewBox="0 0 120 120"><defs><style>.cls-1{fill:none;}.cls-2{clip-path:url(#clip-path);}.cls-3{fill:#dbe1e8;}</style><clipPath id="clip-path"><rect class="cls-1" width="120" height="120"/></clipPath></defs><g class="cls-2"><path class="cls-3" d="M120,41.25V18.49L107.68,0H12.33L0,18.49V41.25A18.76,18.76,0,0,0,10,57.82V110H0v10H120V110H110V57.82A18.76,18.76,0,0,0,120,41.25ZM70,110H50V80H70ZM40,70V90H20V59.93a18.68,18.68,0,0,0,12.5-6A18.72,18.72,0,0,0,60,54a18.73,18.73,0,0,0,27.5,0A18.72,18.72,0,0,0,100,59.94V90H80V70ZM17.67,10h84.65L109,20H11ZM110,30V41.25a8.75,8.75,0,0,1-17.5,0V37.5h-10v3.75a8.75,8.75,0,0,1-17.5,0V37.5H55v3.75a8.75,8.75,0,0,1-17.5,0V37.5h-10v3.75a8.75,8.75,0,0,1-17.5,0V30ZM20,100H40v10H20Zm60,10V100h20v10Z"/></g></svg>