<svg id="Layer_1" data-name="Layer 1" xmlns="http://www.w3.org/2000/svg" viewBox="0 0 22.69 24"><defs><style>.cls-1{fill:#f4900c;}.cls-2{fill:#ffcc4d;}</style></defs><path class="cls-1" d="M22.69,12.65A11.28,11.28,0,0,0,22,8.74c-.31,3.59-2.23,5.44-4.23,4.58s-.61-4-.52-5.45c.16-2.54,0-5.45-4.62-7.87,1.92,3.67.22,6-1.56,6.09-2,.15-3.78-1.7-3.12-4.7a5.13,5.13,0,0,0-1.55,6c.69,1.8,0,3.31-1.73,3.47-1.89.19-2.95-2-2-5.56a11.34,11.34,0,1,0,20,7.34Z"/><path class="cls-2" d="M18.28,16a2.2,2.2,0,0,1-2.68,2.48c-1.4-.57-1-1.53-1.39-3.54a5.05,5.05,0,0,0-3.81-4c1.5,4.23-.83,5.78-2.05,6.06S5.84,17,5.7,14.32A8,8,0,0,0,3.34,20q0,.36,0,.72a11.34,11.34,0,0,0,16,0c0-.24,0-.48,0-.72A7.91,7.91,0,0,0,18.28,16Z"/></svg>