<svg id="Layer_1" data-name="Layer 1" xmlns="http://www.w3.org/2000/svg" viewBox="0 0 19 19"><defs><style>.cls-1{fill-rule:evenodd;}</style></defs><path class="cls-1" d="M9.5,0a9.49,9.49,0,1,0,6.72,2.78A9.51,9.51,0,0,0,9.5,0Zm0,17.54a8.06,8.06,0,1,1,5.68-2.36A8,8,0,0,1,9.5,17.54ZM11.77,5.23a2.76,2.76,0,0,0-.9-.61,3.34,3.34,0,0,0-1.33-.24,3.28,3.28,0,0,0-1.28.25,2.48,2.48,0,0,0-.91.66,2.64,2.64,0,0,0-.55.91,4.18,4.18,0,0,0-.22,1H8.37a1.26,1.26,0,0,1,.22-.65,1.21,1.21,0,0,1,.52-.43,1.19,1.19,0,0,1,.45-.08,1.28,1.28,0,0,1,.39,0,1,1,0,0,1,.32.21.82.82,0,0,1,.24.32,1.12,1.12,0,0,1,.09.44,1.84,1.84,0,0,1-.16.73,3.49,3.49,0,0,1-.4.67l-.51.62a7.34,7.34,0,0,0-.51.6,3.34,3.34,0,0,0-.4.65,1.67,1.67,0,0,0-.14.73v1h1.75v-.72a1.46,1.46,0,0,1,.16-.61,4.89,4.89,0,0,1,.41-.6l.53-.64a7.17,7.17,0,0,0,.52-.71,3.56,3.56,0,0,0,.41-.8A2.72,2.72,0,0,0,12.42,7a2.91,2.91,0,0,0-.14-1A2.28,2.28,0,0,0,11.77,5.23ZM8.48,12.91h1.71v1.71H8.48Z"/></svg>