<svg id="Layer_1" data-name="Layer 1" xmlns="http://www.w3.org/2000/svg" viewBox="0 0 19 19"><defs><style>.cls-1{fill-rule:evenodd;}</style></defs><path class="cls-1" d="M9.5,0C6.92,0,6.6,0,5.58.06A6.65,6.65,0,0,0,3.28.5,4.77,4.77,0,0,0,.5,3.28a6.65,6.65,0,0,0-.44,2.3C0,6.6,0,6.92,0,9.5s0,2.9.06,3.92a6.65,6.65,0,0,0,.44,2.3A4.77,4.77,0,0,0,3.28,18.5a6.65,6.65,0,0,0,2.3.44c1,0,1.34.06,3.92.06s2.9,0,3.92-.06a6.65,6.65,0,0,0,2.3-.44,4.77,4.77,0,0,0,2.78-2.78,6.65,6.65,0,0,0,.44-2.3c0-1,.06-1.34.06-3.92s0-2.9-.06-3.92a6.65,6.65,0,0,0-.44-2.3A4.77,4.77,0,0,0,15.72.5a6.65,6.65,0,0,0-2.3-.44C12.4,0,12.08,0,9.5,0Zm0,1.71c2.54,0,2.84,0,3.84.06a5.17,5.17,0,0,1,1.76.32A3.11,3.11,0,0,1,16.91,3.9a5.17,5.17,0,0,1,.32,1.76c.05,1,.06,1.3.06,3.84s0,2.84-.06,3.84a5.17,5.17,0,0,1-.32,1.76,3.11,3.11,0,0,1-1.81,1.81,5.17,5.17,0,0,1-1.76.32c-1,.05-1.3.06-3.84.06s-2.84,0-3.84-.06a5.17,5.17,0,0,1-1.76-.32A3.11,3.11,0,0,1,2.09,15.1a5.17,5.17,0,0,1-.32-1.76c-.05-1-.06-1.3-.06-3.84s0-2.84.06-3.84A5.17,5.17,0,0,1,2.09,3.9,3.11,3.11,0,0,1,3.9,2.09a5.17,5.17,0,0,1,1.76-.32C6.66,1.72,7,1.71,9.5,1.71Zm0,2.91A4.88,4.88,0,1,0,14.38,9.5,4.89,4.89,0,0,0,9.5,4.62Zm0,8.05A3.17,3.17,0,1,1,12.67,9.5,3.17,3.17,0,0,1,9.5,12.67Zm6.21-8.24a1.14,1.14,0,1,1-1.14-1.14A1.14,1.14,0,0,1,15.71,4.43Z"/></svg>