<svg id="Layer_1" data-name="Layer 1" xmlns="http://www.w3.org/2000/svg" viewBox="0 0 144.65 19.6"><defs><style>.cls-1{fill:#4659ff;}</style></defs><path class="cls-1" d="M0,19.25,5.08.35h6.1q5,0,7.4,2.43a7.51,7.51,0,0,1,2.05,5.54,10.18,10.18,0,0,1-3.11,7.45Q14,19.25,7.61,19.25Zm6.51-4.64H8.23a7.27,7.27,0,0,0,5.4-1.92,5.36,5.36,0,0,0,1.62-3.94,3.49,3.49,0,0,0-.94-2.59A4.93,4.93,0,0,0,10.61,5H9.1Zm14,4.64L25.62.35H40.76L39.55,4.81H29.61l-.78,2.86h9L36.74,11.8h-9l-.81,3H37l-1.19,4.45Zm18.06,0L43.68.35h5.26L45.11,14.66h9l-1.25,4.59Zm25.51.35a9,9,0,0,1-6.5-2.4,8.09,8.09,0,0,1-2.51-6.08A10.71,10.71,0,0,1,55.93,7,12.14,12.14,0,0,1,58.25,3.4,10.85,10.85,0,0,1,61.82,1,11,11,0,0,1,66.35,0a9,9,0,0,1,6.51,2.43,8,8,0,0,1,2.51,6.05,10.62,10.62,0,0,1-.86,4.16,11.47,11.47,0,0,1-2.3,3.56,11.19,11.19,0,0,1-8.1,3.4Zm.46-4.7A4.87,4.87,0,0,0,68.49,13,6.46,6.46,0,0,0,70,8.88a4.18,4.18,0,0,0-1.11-3,3.94,3.94,0,0,0-3-1.16A4.88,4.88,0,0,0,62,6.59a6.39,6.39,0,0,0-1.54,4.13,4.25,4.25,0,0,0,1.08,3A4,4,0,0,0,64.57,14.9Zm14.06,4.49L77.42.35h5.42l.35,10.94L89.73.3h4.53l.73,11L101.2.35h5.7l-11.42,19h-4.7L89.92,8.64,83.3,19.39Zm25.18-.14L108.89.35h5.24l-5.08,18.9Zm8.65,0L117.53.35h5.27L119,14.66h9l-1.24,4.59Zm16.66,0L134.2.35h5.26l-3.83,14.31h9l-1.25,4.59Z"/></svg>