<svg id="Layer_1" data-name="Layer 1" xmlns="http://www.w3.org/2000/svg" viewBox="0 0 22.67 19.84"><path d="M21.25,8.5H4.45L9.59,2.33a1.37,1.37,0,0,0,.26-.49,1.3,1.3,0,0,0,.06-.55,1.38,1.38,0,0,0-.5-1,1.43,1.43,0,0,0-2,.18L.33,9a2.39,2.39,0,0,0-.13.21c0,.08-.07.12-.1.19a1.25,1.25,0,0,0-.1.51,1.29,1.29,0,0,0,.1.51c0,.07.07.11.1.18a1.59,1.59,0,0,0,.13.22l7.08,8.5a1.48,1.48,0,0,0,1.09.51,1.45,1.45,0,0,0,.91-.33,1.61,1.61,0,0,0,.35-.43,1.41,1.41,0,0,0-.17-1.57L4.45,11.34h16.8a1.38,1.38,0,0,0,1-.42,1.42,1.42,0,0,0,.42-1A1.43,1.43,0,0,0,21.25,8.5Z"/></svg>