<svg id="Layer_1" data-name="Layer 1" xmlns="http://www.w3.org/2000/svg" viewBox="0 0 21.49 24"><defs><style>.cls-1{fill:#ffdb5e;}.cls-2{fill:#ee9547;}</style></defs><path class="cls-1" d="M21.49,11.86a2.16,2.16,0,0,0-.22-.94c-.9-2.9-5.11-2.69-11.1-2.83-1,0-.43-1.21-.08-3.81C10.32,2.59,9.23,0,7.4,0c-3,0-.12,2.38-2.79,8.27C3.19,11.42,0,9.65,0,12.81V20c0,1.23.12,2.41,1.85,2.61S3.15,24,5.57,24H17.68a2.24,2.24,0,0,0,2.24-2.24,2.21,2.21,0,0,0-.47-1.35,2.25,2.25,0,0,0,1.15-1.95,2.2,2.2,0,0,0-.46-1.35,2.24,2.24,0,0,0,1.15-1.95,2.19,2.19,0,0,0-.64-1.56A2.25,2.25,0,0,0,21.49,11.86Z"/><path class="cls-2" d="M13.48,14.1h5.77A2.26,2.26,0,0,0,21.18,13a.59.59,0,0,0-1-.6,1.07,1.07,0,0,1-.92.53H13.34a1.07,1.07,0,0,1,0-2.13h3.95a.59.59,0,1,0,0-1.17H13.34a2.22,2.22,0,0,0-1.43,3.94,2.22,2.22,0,0,0,.14,3.3,2.24,2.24,0,0,0-.66,1.59,2.2,2.2,0,0,0,.95,1.82,2.19,2.19,0,0,0-.58,1.48A2.24,2.24,0,0,0,14,24h3.68a2.26,2.26,0,0,0,1.93-1.1.59.59,0,0,0-1-.6,1.07,1.07,0,0,1-.92.52H14a1.06,1.06,0,0,1,0-2.12h4.37a2.24,2.24,0,0,0,1.92-1.1.58.58,0,0,0-.2-.8.6.6,0,0,0-.81.2,1,1,0,0,1-.91.53H13.63a1.07,1.07,0,1,1,0-2.13h5.43A2.24,2.24,0,0,0,21,16.3a.59.59,0,0,0-.2-.8.6.6,0,0,0-.81.2,1,1,0,0,1-.91.53H13.48a1.07,1.07,0,0,1,0-2.13Z"/></svg>