<svg id="Layer_1" data-name="Layer 1" xmlns="http://www.w3.org/2000/svg" viewBox="0 0 22 22"><path d="M11,0A11,11,0,1,0,22,11,11,11,0,0,0,11,0Zm0,20.28A9.28,9.28,0,1,1,20.28,11,9.27,9.27,0,0,1,11,20.28Z"/><path d="M11.69,15.13H10.31V16.5h1.38Z"/><path d="M13.65,6.45a3.24,3.24,0,0,0-1.06-.69A4.28,4.28,0,0,0,11,5.5a3.8,3.8,0,0,0-1.41.26,3.23,3.23,0,0,0-1.1.74,2.79,2.79,0,0,0-.71,1.06,3.09,3.09,0,0,0-.25,1.38H9a2.46,2.46,0,0,1,.55-1.66A1.81,1.81,0,0,1,11,6.65a1.84,1.84,0,0,1,1.38.47,1.74,1.74,0,0,1,.45,1.28,1.7,1.7,0,0,1-.42,1.13,9.08,9.08,0,0,1-.9,1,9.67,9.67,0,0,0-.85,1,1.82,1.82,0,0,0-.38,1.18v1.1h1.38v-.59a2,2,0,0,1,.19-.93,3,3,0,0,1,.51-.72,8,8,0,0,1,.66-.64,6.86,6.86,0,0,0,.67-.65,3,3,0,0,0,.51-.77,2.28,2.28,0,0,0,.21-1,2.92,2.92,0,0,0-.19-1A2.77,2.77,0,0,0,13.65,6.45Z"/></svg>