<svg xmlns="http://www.w3.org/2000/svg" viewBox="0 0 24.48 23.28">

    <path fill="currentColor"
        d="M12.24,0l-.77,1.76L8.69,8l-6.77.72L0,8.91l1.44,1.28,5,4.56L5.07,21.41l-.4,1.87,1.68-1,5.89-3.41,5.89,3.41,1.68,1-.4-1.87L18,14.75l5-4.56,1.44-1.28-1.92-.22L15.79,8,13,1.76Z" />
    <path
        d="M12.24,0l-.77,1.76L8.69,8l-6.77.72L0,8.91l1.44,1.28,5,4.56L5.07,21.41l-.4,1.87,1.68-1,5.89-3.41,5.89,3.41,1.68,1-.4-1.87L18,14.75l5-4.56,1.44-1.28-1.92-.22L15.79,8,13,1.76Zm0,4.19,2.19,4.93.21.45.48.06,5.36.56-4,3.6-.37.34.1.48,1.12,5.26L12.67,17.2l-.43-.27-.43.27L7.15,19.87l1.12-5.26.1-.48L8,13.79l-4-3.6,5.36-.56.48-.06.21-.45Z" />
</svg>