<svg id="Layer_1" data-name="Layer 1" xmlns="http://www.w3.org/2000/svg" viewBox="0 0 20 13"><path d="M17.83,9a10.18,10.18,0,0,1,2,2.62c.66,1.26-.73,1.35-.73,1.35L16.42,13a1.72,1.72,0,0,1-1.33-.46c-1-.78-2-2.82-2.68-2.55s-.72,2.1-.72,2.1a.82.82,0,0,1-.16.46.62.62,0,0,1-.55.14H9.78a6,6,0,0,1-4.95-2.44C2.29,7.24.05,1.33.05,1.33a.77.77,0,0,1,0-.55C.22.59.65.59.65.59H3.51A.7.7,0,0,1,4,.78a1,1,0,0,1,.25.4A21.1,21.1,0,0,0,5.3,3.7C6.49,6.05,7,6.55,7.42,6.31,8,5.94,7.87,3,7.87,3a3.67,3.67,0,0,0-.3-1.55A1.32,1.32,0,0,0,6.68.93c-.17,0,.1-.45.44-.65A6.11,6.11,0,0,1,9.62,0,4.57,4.57,0,0,1,11,.15c1,.28.65,1.33.65,3.83,0,.81-.1,1.92.38,2.31.22.17.76,0,2.11-2.56a23,23,0,0,0,1.1-2.68,1,1,0,0,1,.26-.37.93.93,0,0,1,.39-.09h3s.91-.12,1,.34-.34,1.63-1.57,3.49C16.39,7.49,16.16,7.2,17.83,9Z"/></svg>