<svg id="Layer_1" data-name="Layer 1" xmlns="http://www.w3.org/2000/svg" viewBox="0 0 19 14"><defs><style>.cls-1{fill-rule:evenodd;}</style></defs><path class="cls-1" d="M7.54,9.58V4L12.67,6.8ZM18.81,3a4.49,4.49,0,0,0-.76-2A2.66,2.66,0,0,0,16.15.2C13.49,0,9.5,0,9.5,0h0s-4,0-6.65.2A2.7,2.7,0,0,0,.94,1,4.56,4.56,0,0,0,.19,3,31.49,31.49,0,0,0,0,6.24V7.75A31.49,31.49,0,0,0,.19,11a4.56,4.56,0,0,0,.75,2A3.16,3.16,0,0,0,3,13.8C4.56,14,9.5,14,9.5,14s4,0,6.65-.21a2.62,2.62,0,0,0,1.9-.84,4.49,4.49,0,0,0,.76-2A31.49,31.49,0,0,0,19,7.75V6.24A31.49,31.49,0,0,0,18.81,3Z"/></svg>