<svg id="Layer_1" data-name="Layer 1" xmlns="http://www.w3.org/2000/svg" viewBox="0 0 297 40"><defs><style>.cls-1{fill:#4659ff;}</style></defs><path class="cls-1" d="M0,39.28,10.42.72H23q10.2,0,15.19,5,4.22,4.2,4.22,11.3A20.7,20.7,0,0,1,36,32.18q-7.15,7.09-20.35,7.1Zm13.36-9.47h3.55q7.15,0,11.09-3.91a11,11,0,0,0,3.32-8,7.11,7.11,0,0,0-1.94-5.29q-2.26-2.37-7.59-2.37H18.68Z"/><path class="cls-1" d="M42.17,39.28,52.6.72H83.7L81.2,9.81H60.8l-1.61,5.84H77.71l-2.27,8.43H56.92l-1.66,6.11H76l-2.44,9.09Z"/><path class="cls-1" d="M79.26,39.28,89.68.72h10.81l-7.87,29.2h18.52l-2.55,9.36Z"/><path class="cls-1" d="M131.64,40q-8.2,0-13.36-4.9a16.52,16.52,0,0,1-5.15-12.4,21.87,21.87,0,0,1,1.72-8.49,24.54,24.54,0,0,1,4.76-7.27,22.25,22.25,0,0,1,7.32-5A22.8,22.8,0,0,1,136.24,0q8.2,0,13.37,5a16.33,16.33,0,0,1,5.15,12.34A21.4,21.4,0,0,1,153,25.79a23.67,23.67,0,0,1-4.72,7.27,22.69,22.69,0,0,1-7.37,5.07A23,23,0,0,1,131.64,40Zm1-9.59a10,10,0,0,0,8-3.8,13.12,13.12,0,0,0,3.16-8.48A8.52,8.52,0,0,0,141.51,12a8.09,8.09,0,0,0-6.21-2.37,10.06,10.06,0,0,0-8,3.85,13,13,0,0,0-3.16,8.43A8.65,8.65,0,0,0,126.32,28,8.29,8.29,0,0,0,132.59,30.41Z"/><path class="cls-1" d="M161.45,39.56,159,.72H170.1L170.82,23,184.24.61h9.31L195.05,23,207.8.72h11.7L196.05,39.56H186.4l-1.77-21.93L171,39.56Z"/><path class="cls-1" d="M213.15,39.28,223.58.72h10.75L223.91,39.28Z"/><path class="cls-1" d="M230.91,39.28,241.33.72h10.81l-7.87,29.2h18.51l-2.55,9.36Z"/><path class="cls-1" d="M265.12,39.28,275.55.72h10.81l-7.88,29.2H297l-2.55,9.36Z"/></svg>