<svg width="19" height="19" viewBox="0 0 19 19" fill="none" xmlns="http://www.w3.org/2000/svg">
<path fill-rule="evenodd" clip-rule="evenodd" d="M9.5 0C6.98044 0 4.56408 1.00089 2.78249 2.78249C1.00089 4.56408 0 6.98044 0 9.5C0 12.0196 1.00089 14.4359 2.78249 16.2175C4.56408 17.9991 6.98044 19 9.5 19C12.0196 19 14.4359 17.9991 16.2175 16.2175C17.9991 14.4359 19 12.0196 19 9.5C19 6.98044 17.9991 4.56408 16.2175 2.78249C14.4359 1.00089 12.0196 0 9.5 0ZM9.5 17.5385C7.36807 17.5385 5.32345 16.6916 3.81595 15.1841C2.30845 13.6765 1.46154 11.6319 1.46154 9.5C1.46154 7.36807 2.30845 5.32345 3.81595 3.81595C5.32345 2.30845 7.36807 1.46154 9.5 1.46154C11.6319 1.46154 13.6765 2.30845 15.1841 3.81595C16.6916 5.32345 17.5385 7.36807 17.5385 9.5C17.5385 11.6319 16.6916 13.6765 15.1841 15.1841C13.6765 16.6916 11.6319 17.5385 9.5 17.5385ZM11.7654 5.23231C11.5129 4.96938 11.2096 4.76054 10.8738 4.61846C10.4515 4.44934 9.99858 4.36972 9.54385 4.38462C9.10247 4.3766 8.66432 4.46124 8.25769 4.63308C7.90838 4.77923 7.6 5.00431 7.35154 5.29077C7.1095 5.55402 6.92088 5.86177 6.79615 6.19692C6.68019 6.53737 6.60656 6.8908 6.57692 7.24923H8.37462C8.3829 7.01726 8.45677 6.7924 8.58767 6.60071C8.71856 6.40903 8.90111 6.25838 9.11415 6.16623C9.25536 6.1106 9.40693 6.08617 9.55846 6.09462C9.68918 6.07384 9.82236 6.07384 9.95308 6.09462C10.0732 6.14003 10.1826 6.20968 10.2746 6.29923C10.3762 6.38709 10.4562 6.4971 10.5085 6.62077C10.5683 6.75909 10.5982 6.90852 10.5962 7.05923C10.5962 7.31208 10.5421 7.56054 10.4354 7.79C10.3292 8.02807 10.1969 8.25356 10.0408 8.46231L9.52923 9.07615C9.35385 9.26615 9.17846 9.47077 9.01769 9.67538C8.86181 9.87906 8.72943 10.0997 8.62308 10.3331C8.52168 10.5631 8.4718 10.8125 8.47692 11.0638V12.0285H10.2308V11.3123C10.2357 11.0979 10.2908 10.8877 10.3915 10.6985C10.5117 10.4881 10.6485 10.2877 10.8008 10.0992L11.3269 9.45615C11.5185 9.23487 11.6943 9.00045 11.8531 8.75461C12.021 8.50393 12.1584 8.23407 12.2623 7.95077C12.3689 7.65044 12.4233 7.33407 12.4231 7.01538C12.4257 6.68335 12.3764 6.35295 12.2769 6.03615C12.1666 5.73436 11.992 5.46011 11.7654 5.23231ZM8.47692 12.9054H10.1869V14.6154H8.47692V12.9054Z" fill="#A0A7B2"/>
</svg>
