<svg width="88" height="22" viewBox="0 0 88 22" fill="none" xmlns="http://www.w3.org/2000/svg">
<g clip-path="url(#clip0)">
<path fill-rule="evenodd" clip-rule="evenodd" d="M47.3122 5.32725C47.5239 5.54868 49.4288 10.824 49.628 11.4753C49.8264 12.173 50.1066 12.8424 50.4622 13.4682C51.1221 13.6245 51.1843 12.9341 51.3836 12.387C52.4667 9.43027 54.1102 5.11884 54.9319 2.21416C55.5047 0.807413 55.5545 0.429675 54.5211 0.429675C53.4877 0.429675 53.5997 1.13305 53.1889 2.04483C52.8278 3.77722 51.4334 7.43737 50.9229 9.11766C50.9229 9.33909 50.9229 9.33909 50.6614 9.33909C49.8023 6.8382 48.8063 3.77722 47.8352 1.30238C47.5737 0.820439 47.113 0.716235 46.8018 1.79735C46.2789 3.51671 45.5567 5.56171 44.9965 7.22897C44.9965 7.22897 44.3241 9.33909 44.2743 9.44329C43.9183 8.84436 43.6576 8.18889 43.5024 7.5025C42.7305 5.5096 42.0581 3.3604 41.3983 1.36751C41.2364 0.98977 41.2364 0.768337 40.8754 0.546904C40.5134 0.406597 40.1221 0.370608 39.7424 0.4427C38.7214 0.612031 39.3813 1.47171 39.5929 2.10996C40.838 5.61381 42.22 9.82103 43.602 13.1556C43.6344 13.2382 43.6869 13.3104 43.7545 13.365C43.822 13.4196 43.9021 13.4546 43.9867 13.4665C44.0713 13.4784 44.1574 13.4667 44.2363 13.4327C44.3152 13.3987 44.3841 13.3435 44.4362 13.2728C44.6354 12.869 47.1628 5.32725 47.3122 5.32725Z" fill="#221F20"/>
<path fill-rule="evenodd" clip-rule="evenodd" d="M0.199056 0.651448C0.14759 0.868435 0.165072 1.09705 0.248858 1.30272C0.460516 2.2145 -0.162008 12.6088 -0.000151765 13.0256C0.503812 13.2627 1.06884 13.3177 1.60596 13.1819C1.85497 12.9084 1.75537 12.6479 1.75537 12.2181C1.75537 10.3815 1.90477 8.61 1.90477 6.72131C1.96702 6.01794 2.01683 5.536 2.01683 5.10615C2.01683 4.67631 2.01683 4.72842 2.11643 4.62421C2.21603 4.52001 3.84705 7.48981 4.0089 7.81545C4.32017 8.4537 4.93024 9.43061 5.3411 10.1861C5.96363 11.3714 6.27489 10.5638 6.4243 10.2903C6.78536 9.80835 9.57427 4.68934 9.77348 4.58514C9.96023 4.79354 9.96023 9.91255 9.96023 10.2903C9.96023 13.0908 9.64897 13.3643 11.3422 13.2471C11.8652 13.2471 11.915 12.8172 11.8652 12.3353C11.8652 11.4235 11.8652 10.3945 11.8652 9.48271C11.7282 7.16418 11.6286 4.52001 11.6286 2.2145C11.6286 1.94097 11.7282 0.911957 11.7282 0.755652C11.5758 0.575958 11.3693 0.456068 11.1429 0.415804C10.9165 0.37554 10.6838 0.417314 10.4832 0.534219C10.1221 0.755652 10.0225 1.23759 9.76103 1.56323C8.71519 3.50402 7.30828 5.70533 6.32469 7.54192C5.96363 8.19319 5.96363 7.97176 5.65237 7.54192C4.98004 6.5129 4.10851 4.74144 3.49843 3.71243L2.25339 1.56323C2.08032 1.18974 1.85822 0.843387 1.59351 0.534219C1.2449 0.27371 0.56012 0.482117 0.199056 0.651448Z" fill="#221F20"/>
<path fill-rule="evenodd" clip-rule="evenodd" d="M65.8983 6.68213C66.339 6.30596 66.8617 6.04965 67.42 5.93602C67.9783 5.82239 68.5548 5.85497 69.0981 6.03085C70.7415 6.78633 70.9532 9.32629 70.2311 10.5637C69.9235 11.046 69.4805 11.4165 68.9631 11.6241C68.4457 11.8318 67.8795 11.8663 67.3426 11.723C66.8224 11.6156 66.3301 11.3936 65.8983 11.0717V6.68213ZM65.8983 4.84554C65.8207 3.42692 65.8207 2.00482 65.8983 0.586212C65.8983 6.59185e-05 65.6991 -0.104138 65.1762 0.10427C63.9311 0.651339 63.9311 0.429906 64.1054 1.61522C64.205 2.21439 64.1054 9.15696 64.1054 10.1339C64.1054 12.0616 63.844 12.5045 66.5208 13.3121C67.283 13.4793 68.0697 13.4836 68.8335 13.3247C69.5974 13.1658 70.3226 12.8469 70.9657 12.3873C73.5927 10.1339 72.8706 3.77745 68.0771 4.25939C67.6593 4.28305 67.2434 4.33526 66.8321 4.4157C66.6702 4.4678 66.0602 4.84554 65.9855 4.84554H65.8983Z" fill="#221F20"/>
<path fill-rule="evenodd" clip-rule="evenodd" d="M29.5918 13.1428C29.7865 12.4635 29.8416 11.7488 29.7536 11.0457C29.7026 10.3085 29.7026 9.56848 29.7536 8.83133C29.903 8.83133 30.0649 9.10487 30.3761 9.4305C30.6874 9.75614 33.2522 12.5566 33.6631 12.8692C33.8064 13.0088 33.9792 13.111 34.1674 13.1676C34.3556 13.2242 34.554 13.2335 34.7463 13.1949C35.1073 13.1949 35.68 13.1949 35.8793 12.9344C35.8793 12.5566 35.1571 11.9574 34.8459 11.6318C34.5346 11.3062 34.1362 10.8894 33.7751 10.4465C32.9832 9.71736 32.2426 8.92944 31.5589 8.08888C31.5589 7.97165 34.3852 5.48379 34.9081 5.01487C35.1073 4.79344 35.319 4.74134 35.2692 4.4157C34.6284 4.20889 33.9428 4.20889 33.302 4.4157C33.053 4.53293 31.3473 6.14809 30.8866 6.57793C30.7372 6.73423 29.8532 7.71114 29.7536 7.65904C29.6042 7.16407 29.7536 0.429912 29.654 0.052174C29.5544 -0.325564 27.7989 0.273607 27.8487 0.92488C27.9463 1.38247 27.9964 1.84976 27.9981 2.3186V11.6318C27.9981 11.9574 27.8985 12.9344 28.1102 13.0907C28.5946 13.2202 29.1001 13.238 29.5918 13.1428Z" fill="#221F20"/>
<path fill-rule="evenodd" clip-rule="evenodd" d="M16.1821 8.72706C16.7548 8.57075 18.6721 9.0527 18.7593 9.58674C18.8091 10.163 18.8091 10.7428 18.7593 11.3191C18.3982 11.8011 15.9206 12.765 15.0989 11.0456C14.9881 10.8013 14.9307 10.5344 14.9307 10.2641C14.9307 9.99373 14.9881 9.72678 15.0989 9.48254C15.2184 9.28394 15.3767 9.114 15.5634 8.98381C15.75 8.85362 15.9608 8.76613 16.1821 8.72706ZM18.8091 8.07579C18.3253 7.74048 17.7842 7.50607 17.2154 7.38544C16.5067 7.30333 15.7896 7.35629 15.0989 7.54174C14.5173 7.716 14.0045 8.08089 13.6359 8.58275C13.2673 9.08461 13.0624 9.69696 13.0513 10.3297C13.0401 10.9625 13.2233 11.5824 13.574 12.0981C13.9246 12.6138 14.4242 12.9982 14.9993 13.1948C15.9841 13.5461 17.0524 13.5461 18.0372 13.1948C18.2488 13.0906 18.6597 12.8171 18.8091 12.765C18.9585 12.7129 19.0208 13.1427 19.22 13.2469C19.4192 13.3511 20.353 13.2469 20.6144 12.9864C20.8759 12.7259 20.9257 12.765 20.7638 12.3872C20.5229 11.8888 20.4359 11.3244 20.5148 10.7721V6.89047C20.58 6.34086 20.4516 5.78525 20.1538 5.32741C19.1702 3.28242 13.2437 4.09 13.7169 5.82238C14.19 7.55477 14.9619 5.22321 17.5765 5.54885C18.9834 5.70515 18.834 7.1119 18.834 8.07579H18.8091Z" fill="#221F20"/>
<path fill-rule="evenodd" clip-rule="evenodd" d="M79.7562 7.81588H75.4857C75.543 7.28105 75.7762 6.78371 76.1456 6.40913C76.5488 6.03924 77.0553 5.81539 77.5899 5.77088C77.8683 5.74682 78.1485 5.78171 78.4138 5.87346C78.679 5.96522 78.9239 6.11196 79.1337 6.30492C79.345 6.48675 79.5117 6.71871 79.6199 6.98151C79.7282 7.24431 79.7749 7.53037 79.7562 7.81588ZM75.3737 9.2096C75.6849 9.0533 80.3539 9.2096 81.2005 9.2096C82.0471 9.2096 81.6612 6.30492 80.1173 5.11961C79.4866 4.62767 78.7357 4.33238 77.9514 4.26783C77.1671 4.20329 76.3814 4.37212 75.6849 4.75484C74.9884 5.13755 74.4096 5.71855 74.0152 6.43074C73.6209 7.14293 73.4271 7.95728 73.4563 8.77976C73.4267 9.5786 73.6044 10.3709 73.9705 11.0727C74.3365 11.7744 74.8774 12.3594 75.5355 12.7656C76.9175 13.7425 80.6278 13.6904 81.0884 12.1794C81.6612 10.2386 80.3165 11.3197 79.8434 11.5281C79.4455 11.6988 79.0262 11.8084 78.5983 11.8538C75.8468 12.1794 75.1745 9.63944 75.3737 9.2096Z" fill="#221F20"/>
<path fill-rule="evenodd" clip-rule="evenodd" d="M56.6848 7.81494C56.7285 7.2586 56.9702 6.73971 57.3622 6.36099C57.7542 5.98227 58.2678 5.77133 58.8014 5.76994C59.8721 5.65271 61.1172 6.62962 60.9055 7.81494H56.6848ZM56.4731 9.11748C56.7346 9.11748 61.5778 9.11748 62.2502 9.11748C62.9225 9.11748 62.8104 8.68764 62.7606 8.1536C62.7243 7.43036 62.5089 6.72942 62.1358 6.11942C61.7626 5.50941 61.2444 5.01128 60.6319 4.67381C60.0193 4.33634 59.3335 4.1711 58.6416 4.19428C57.9497 4.21746 57.2754 4.42827 56.6848 4.80606C56.0207 5.21652 55.4776 5.81057 55.1152 6.52293C54.7527 7.23528 54.585 8.03837 54.6305 8.84395C54.5776 9.63917 54.7488 10.4331 55.1228 11.1277C55.4967 11.8222 56.0571 12.3868 56.7346 12.7516C58.4901 13.8848 61.9389 13.4029 62.2502 12.1133C62.2502 11.7356 62.4992 10.8108 61.9389 11.0322C61.2621 11.4325 60.5254 11.71 59.7601 11.8528C59.3521 11.9099 58.9373 11.8817 58.5398 11.7699C58.1423 11.6581 57.7699 11.4649 57.4443 11.2016C56.9961 10.8238 56.2739 9.6906 56.4731 9.11748Z" fill="#221F20"/>
<path fill-rule="evenodd" clip-rule="evenodd" d="M84.4368 13.1945C84.7481 12.8689 84.6983 12.7126 84.6983 12.2306V10.9281C84.6983 9.20871 84.387 6.35613 86.2919 5.92629C86.7028 5.82209 86.8024 6.1868 87.3253 6.0826C87.6337 5.79316 87.8653 5.42522 87.9977 5.01451C87.9977 4.19391 86.7526 4.0376 85.6196 4.57164C85.2586 4.74098 84.9597 5.32712 84.6983 5.37922C84.6983 4.89728 84.7979 4.68887 84.4866 4.25903C84.0876 4.29907 83.7013 4.42786 83.3536 4.63677C82.8432 4.89728 82.7436 4.89728 82.8432 5.54855C82.9428 6.19983 82.8432 10.6676 82.8432 11.7356C82.893 13.3638 82.893 13.3117 84.4368 13.1945Z" fill="#221F20"/>
<path fill-rule="evenodd" clip-rule="evenodd" d="M23.7309 13.1429V13.0387C23.8754 11.7157 23.9129 10.3824 23.8429 9.05286C23.8429 8.02385 24.0919 6.35659 25.1751 6.03096C26.0467 5.70532 26.0965 6.565 26.6692 6.03096C28.0014 4.57211 26.2085 3.98596 25.1253 4.4679C24.0421 4.94984 24.1915 5.32758 23.8803 5.43179C23.8553 5.21984 23.8553 5.00548 23.8803 4.79354C23.8803 4.52 23.7682 4.52 23.6686 4.3637C23.2694 4.3603 22.8771 4.47304 22.5356 4.68934C22.0252 4.89774 21.8633 4.94984 22.0252 5.60112C22.1347 6.59972 22.168 7.60586 22.1248 8.61V11.5798C22.2368 13.195 22.0252 13.3122 23.7309 13.1429Z" fill="#221F20"/>
<path fill-rule="evenodd" clip-rule="evenodd" d="M46.9512 14.8754C44.8959 15.1406 42.8749 15.643 40.9252 16.3733C40.3151 16.6468 39.6801 16.8031 39.0701 17.0767C37.825 17.5586 36.6547 17.9884 35.4221 18.4834C35.0112 18.6397 32.0729 19.5515 31.5624 19.6687C29.0723 20.307 25.3372 21.0625 22.9592 19.9292C21.8262 19.3431 21.7141 21.1667 24.2914 21.8179C25.7985 22.0941 27.3451 22.023 28.8233 21.6095C30.0684 21.336 31.5624 20.8541 32.7452 20.4763C33.928 20.0986 35.3225 19.6687 36.6049 19.291C36.9161 19.1738 37.1652 19.0696 37.5262 18.9654L39.4311 18.3662C39.7922 18.262 40.0537 18.1057 40.3649 17.9885L42.3321 17.5065C42.6932 17.4023 42.9546 17.2981 43.2659 17.1809C45.8726 16.5991 48.5314 16.3109 51.1968 16.3212C51.8567 16.3212 52.8403 16.4905 53.5126 16.5947C54.7577 16.751 54.4838 16.0607 53.662 15.6178C51.5255 14.7614 49.2118 14.5054 46.9512 14.8754Z" fill="#F9CC46"/>
</g>
<defs>
<clipPath id="clip0">
<rect width="88" height="22" fill="white"/>
</clipPath>
</defs>
</svg>
