<svg width="57" height="57" viewBox="0 0 57 57" fill="none" xmlns="http://www.w3.org/2000/svg">
<path d="M24.3907 2.02575C26.6733 -0.210731 30.3255 -0.210731 32.6081 2.02575C34.0757 3.46371 36.1883 4.02978 38.1783 3.51828C41.2733 2.72275 44.4362 4.54883 45.2948 7.62699C45.8468 9.60612 47.3933 11.1526 49.3725 11.7047C52.4506 12.5632 54.2767 15.7261 53.4812 18.8212C52.9697 20.8112 53.5358 22.9238 54.9737 24.3914C57.2102 26.674 57.2102 30.3262 54.9737 32.6088C53.5358 34.0765 52.9697 36.189 53.4812 38.179C54.2767 41.2741 52.4506 44.437 49.3725 45.2955C47.3933 45.8476 45.8468 47.3941 45.2948 49.3732C44.4362 52.4514 41.2733 54.2775 38.1783 53.4819C36.1883 52.9704 34.0757 53.5365 32.6081 54.9745C30.3255 57.2109 26.6733 57.2109 24.3907 54.9745C22.923 53.5365 20.8104 52.9704 18.8204 53.4819C15.7254 54.2775 12.5625 52.4514 11.7039 49.3732C11.1519 47.3941 9.60539 45.8476 7.62626 45.2955C4.5481 44.437 2.72202 41.2741 3.51755 38.179C4.02904 36.189 3.46298 34.0765 2.02501 32.6088C-0.211463 30.3262 -0.211463 26.674 2.02501 24.3914C3.46298 22.9238 4.02904 20.8112 3.51755 18.8212C2.72202 15.7261 4.5481 12.5632 7.62626 11.7047C9.60539 11.1526 11.1519 9.60612 11.7039 7.62699C12.5625 4.54883 15.7254 2.72275 18.8204 3.51828C20.8104 4.02978 22.923 3.46371 24.3907 2.02575Z" fill="#D7F1D6"/>
</svg>
