<svg width="416" height="413" viewBox="0 0 416 413" fill="none" xmlns="http://www.w3.org/2000/svg">
<g opacity="0.8">
<g opacity="0.5">
<path opacity="0.5" d="M326.999 168.512H205.559V336.998H326.999V168.512Z" fill="url(#paint0_linear)"/>
</g>
<path d="M325.459 169.75H207.109V334.513H325.459V169.75Z" fill="white"/>
<g opacity="0.5">
<path opacity="0.5" d="M315.788 162.461H194.348V330.947H315.788V162.461Z" fill="url(#paint1_linear)"/>
</g>
<path d="M314.237 163.699H195.887V328.462H314.237V163.699Z" fill="#F5F5F5"/>
<g opacity="0.5">
<path opacity="0.5" d="M305.241 156.914H183.801V325.4H305.241V156.914Z" fill="url(#paint2_linear)"/>
</g>
<path d="M303.694 158.156H185.344V322.919H303.694V158.156Z" fill="white"/>
<path d="M229.037 185.656H196.227V188.68H229.037V185.656Z" fill="#4659FF"/>
<path d="M292.647 196.25H196.227V199.274H292.647V196.25Z" fill="#E0E0E0"/>
<path d="M271.219 206.836H196.227V209.86H271.219V206.836Z" fill="#E0E0E0"/>
<path d="M284.777 217.426H196.227V220.45H284.777V217.426Z" fill="#E0E0E0"/>
<path d="M284.782 228.016H206.441V231.039H284.782V228.016Z" fill="#E0E0E0"/>
<path opacity="0.3" d="M275.743 238.605H213.973V241.629H275.743V238.605Z" fill="#3384FE"/>
<path d="M283.276 249.195H206.441V252.219H283.276V249.195Z" fill="#E0E0E0"/>
<path d="M292.647 259.781H196.227V262.805H292.647V259.781Z" fill="#E0E0E0"/>
<path d="M292.647 270.375H196.227V273.399H292.647V270.375Z" fill="#E0E0E0"/>
<path d="M292.647 280.965H196.227V283.989H292.647V280.965Z" fill="#E0E0E0"/>
<path d="M292.647 291.551H196.227V294.575H292.647V291.551Z" fill="#E0E0E0"/>
<g opacity="0.5">
<path opacity="0.5" d="M121.44 49H0V217.486H121.44V49Z" fill="url(#paint3_linear)"/>
</g>
<path d="M119.901 50.2422H1.55078V215.005H119.901V50.2422Z" fill="white"/>
<path d="M100.98 109.512H21.9688V112.536H100.98V109.512Z" fill="#E0E0E0"/>
<path d="M100.985 120.102H22.6445V123.125H100.985V120.102Z" fill="#E0E0E0"/>
<path d="M91.9503 130.691H30.1797V133.715H91.9503V130.691Z" fill="#E0E0E0"/>
<path d="M99.4795 141.281H22.6445V144.305H99.4795V141.281Z" fill="#E0E0E0"/>
<path d="M100.309 151.871H21.9688V154.895H100.309V151.871Z" fill="#E0E0E0"/>
<path d="M100.309 162.457H21.9688V165.481H100.309V162.457Z" fill="#E0E0E0"/>
<path d="M100.309 173.051H21.9688V176.075H100.309V173.051Z" fill="#E0E0E0"/>
<path d="M100.309 183.641H21.9688V186.664H100.309V183.641Z" fill="#E0E0E0"/>
<path d="M44.1494 73.7109H23.0586V91.8654H44.1494V73.7109Z" fill="#4659FF"/>
<path d="M98.3852 76.7344H59.2148V79.7582H98.3852V76.7344Z" fill="#E0E0E0"/>
<path opacity="0.3" d="M98.3852 87.3242H59.2148V90.3481H98.3852V87.3242Z" fill="#3384FE"/>
<g opacity="0.3">
<path opacity="0.3" d="M137.141 87.3242H139.388" stroke="#3384FE" stroke-width="3" stroke-miterlimit="10"/>
<path opacity="0.3" d="M143.766 87.3242H229.122" stroke="#3384FE" stroke-width="3" stroke-miterlimit="10" stroke-dasharray="11.69 11.69"/>
<path opacity="0.3" d="M231.316 87.3242H233.564V89.5808" stroke="#3384FE" stroke-width="3" stroke-miterlimit="10"/>
<path opacity="0.3" d="M233.562 94.3945V140.147" stroke="#3384FE" stroke-width="3" stroke-miterlimit="10" stroke-dasharray="12.8 12.8"/>
<path opacity="0.3" d="M233.562 142.555V144.811" stroke="#3384FE" stroke-width="3" stroke-miterlimit="10"/>
</g>
<g opacity="0.3">
<path opacity="0.3" d="M171.794 288.523H169.547" stroke="#3384FE" stroke-width="3" stroke-miterlimit="10"/>
<path opacity="0.3" d="M165.161 288.527H79.8047" stroke="#3384FE" stroke-width="3" stroke-miterlimit="10" stroke-dasharray="11.69 11.69"/>
<path opacity="0.3" d="M77.6184 288.526H75.3711V286.27" stroke="#3384FE" stroke-width="3" stroke-miterlimit="10"/>
<path opacity="0.3" d="M75.3711 281.452V235.703" stroke="#3384FE" stroke-width="3" stroke-miterlimit="10" stroke-dasharray="12.8 12.8"/>
<path opacity="0.3" d="M75.3711 233.296V231.039" stroke="#3384FE" stroke-width="3" stroke-miterlimit="10"/>
</g>
<path opacity="0.3" d="M192.502 111.486C192.195 111.348 191.95 111.102 191.812 110.794C191.674 110.487 191.653 110.139 191.753 109.817C191.769 109.767 191.779 109.715 191.783 109.662C191.792 109.514 191.754 109.366 191.673 109.241C191.592 109.115 191.473 109.02 191.333 108.968C191.194 108.917 191.042 108.912 190.899 108.954C190.757 108.997 190.632 109.084 190.543 109.204C190.513 109.246 190.488 109.291 190.468 109.339C190.33 109.647 190.085 109.893 189.779 110.032C189.472 110.17 189.126 110.192 188.805 110.091C188.755 110.075 188.704 110.065 188.651 110.061C188.503 110.051 188.356 110.09 188.231 110.171C188.107 110.253 188.012 110.372 187.96 110.512C187.909 110.652 187.904 110.805 187.946 110.948C187.989 111.091 188.076 111.217 188.195 111.306C188.236 111.336 188.282 111.361 188.329 111.381C188.636 111.519 188.881 111.766 189.019 112.073C189.158 112.381 189.179 112.729 189.078 113.051C189.062 113.101 189.052 113.153 189.049 113.205C189.039 113.354 189.078 113.502 189.159 113.627C189.24 113.752 189.359 113.847 189.498 113.899C189.637 113.951 189.79 113.956 189.932 113.913C190.074 113.871 190.199 113.784 190.288 113.664C190.318 113.622 190.344 113.577 190.363 113.529C190.501 113.221 190.746 112.974 191.053 112.836C191.359 112.697 191.705 112.676 192.026 112.776C192.076 112.793 192.128 112.803 192.18 112.807C192.328 112.816 192.475 112.777 192.6 112.696C192.724 112.615 192.819 112.495 192.871 112.355C192.922 112.215 192.927 112.062 192.885 111.919C192.843 111.776 192.756 111.651 192.637 111.562C192.595 111.531 192.55 111.506 192.502 111.486Z" fill="#3384FE"/>
<path opacity="0.3" d="M144.257 145.758C143.602 145.472 143.074 144.953 142.776 144.301C142.478 143.648 142.431 142.908 142.643 142.223C142.677 142.118 142.698 142.009 142.707 141.899C142.729 141.584 142.649 141.269 142.478 141.003C142.307 140.737 142.054 140.534 141.758 140.425C141.462 140.316 141.139 140.307 140.837 140.398C140.535 140.49 140.271 140.677 140.085 140.933C140.02 141.021 139.966 141.117 139.924 141.219C139.64 141.874 139.125 142.401 138.479 142.7C137.832 142.999 137.099 143.049 136.418 142.84C136.314 142.806 136.206 142.784 136.096 142.776C135.782 142.753 135.468 142.834 135.204 143.006C134.939 143.177 134.737 143.431 134.628 143.728C134.519 144.026 134.51 144.35 134.601 144.653C134.692 144.956 134.879 145.221 135.133 145.408C135.222 145.473 135.317 145.528 135.418 145.57C136.071 145.856 136.596 146.372 136.893 147.021C137.191 147.671 137.241 148.407 137.032 149.09C136.999 149.195 136.977 149.304 136.969 149.414C136.946 149.73 137.027 150.044 137.198 150.31C137.369 150.576 137.621 150.779 137.917 150.888C138.213 150.997 138.537 151.007 138.838 150.915C139.14 150.823 139.404 150.636 139.591 150.381C139.655 150.292 139.709 150.196 139.752 150.095C140.036 149.439 140.55 148.912 141.197 148.613C141.843 148.314 142.577 148.265 143.257 148.474C143.362 148.508 143.47 148.529 143.58 148.538C143.894 148.56 144.207 148.479 144.472 148.308C144.737 148.136 144.939 147.882 145.047 147.585C145.156 147.288 145.166 146.963 145.074 146.66C144.983 146.357 144.796 146.092 144.542 145.905C144.453 145.845 144.358 145.796 144.257 145.758Z" fill="#3384FE"/>
<path opacity="0.3" d="M173.845 244.374C173.147 244.516 172.422 244.396 171.808 244.036C171.193 243.676 170.732 243.101 170.511 242.422C170.48 242.317 170.436 242.216 170.38 242.121C170.217 241.853 169.973 241.645 169.683 241.528C169.393 241.41 169.073 241.39 168.77 241.47C168.468 241.55 168.199 241.725 168.004 241.971C167.809 242.216 167.698 242.518 167.687 242.832C167.684 242.942 167.694 243.052 167.717 243.159C167.859 243.859 167.739 244.588 167.381 245.205C167.022 245.822 166.45 246.285 165.773 246.507C165.669 246.538 165.568 246.583 165.474 246.638C165.207 246.802 164.999 247.047 164.883 247.339C164.766 247.63 164.746 247.951 164.825 248.255C164.905 248.559 165.08 248.828 165.324 249.024C165.568 249.22 165.869 249.332 166.182 249.342C166.291 249.345 166.4 249.335 166.507 249.312C167.205 249.17 167.93 249.29 168.545 249.65C169.159 250.01 169.621 250.585 169.841 251.264C169.873 251.369 169.917 251.47 169.972 251.565C170.135 251.833 170.38 252.041 170.67 252.159C170.96 252.276 171.28 252.296 171.582 252.216C171.884 252.137 172.153 251.961 172.348 251.716C172.543 251.47 172.654 251.168 172.665 250.854C172.668 250.744 172.658 250.635 172.635 250.527C172.493 249.827 172.613 249.099 172.972 248.481C173.33 247.864 173.902 247.401 174.579 247.18C174.684 247.148 174.784 247.104 174.879 247.048C175.146 246.885 175.353 246.639 175.47 246.348C175.587 246.056 175.607 245.735 175.527 245.431C175.448 245.128 175.273 244.858 175.028 244.662C174.784 244.466 174.483 244.354 174.171 244.344C174.061 244.341 173.952 244.351 173.845 244.374Z" fill="#3384FE"/>
<path opacity="0.3" d="M114.596 263.807C114.289 263.669 114.044 263.422 113.906 263.115C113.767 262.807 113.746 262.459 113.847 262.137C113.863 262.087 113.873 262.035 113.876 261.983C113.886 261.834 113.847 261.686 113.766 261.561C113.685 261.436 113.566 261.34 113.427 261.289C113.288 261.237 113.135 261.232 112.993 261.275C112.851 261.317 112.726 261.404 112.637 261.524C112.607 261.566 112.581 261.611 112.562 261.659C112.424 261.967 112.179 262.214 111.872 262.352C111.566 262.491 111.22 262.512 110.899 262.411C110.849 262.395 110.797 262.385 110.745 262.381C110.597 262.372 110.45 262.41 110.325 262.492C110.201 262.573 110.106 262.693 110.054 262.833C110.003 262.973 109.998 263.125 110.04 263.268C110.082 263.411 110.169 263.537 110.288 263.626C110.33 263.656 110.375 263.682 110.423 263.701C110.73 263.84 110.975 264.086 111.113 264.394C111.251 264.701 111.272 265.049 111.172 265.371C111.156 265.421 111.146 265.473 111.142 265.526C111.133 265.674 111.171 265.822 111.252 265.947C111.333 266.072 111.452 266.168 111.592 266.219C111.731 266.271 111.883 266.276 112.026 266.234C112.168 266.191 112.293 266.104 112.382 265.984C112.412 265.942 112.437 265.897 112.457 265.849C112.595 265.541 112.84 265.295 113.146 265.156C113.453 265.017 113.799 264.996 114.12 265.097C114.17 265.113 114.221 265.123 114.273 265.127C114.422 265.136 114.569 265.098 114.694 265.016C114.818 264.935 114.913 264.816 114.964 264.676C115.016 264.536 115.021 264.383 114.979 264.24C114.936 264.097 114.849 263.971 114.73 263.882C114.689 263.852 114.643 263.826 114.596 263.807Z" fill="#3384FE"/>
</g>
<path d="M226.293 135.313C226.293 135.313 229.988 115.927 241.885 115.828L250.576 133.718L244.78 137.715C244.78 137.715 232.187 138.115 226.293 135.313Z" fill="#D0CDE1"/>
<path opacity="0.502" d="M250.576 133.713L244.78 137.715C244.78 137.715 235.945 137.996 229.583 136.436C228.452 136.172 227.35 135.796 226.293 135.314C226.301 135.207 226.324 135.102 226.361 135.002C226.359 134.978 226.359 134.953 226.361 134.929C226.907 132.496 227.66 130.114 228.611 127.808C228.975 126.94 229.391 126.041 229.838 125.147C231.579 121.795 234.027 118.51 237.374 116.883C238.613 116.274 239.962 115.921 241.34 115.844H241.87L242.057 116.239L245 122.283L250.576 133.713Z" fill="#D8D8D8"/>
<path d="M349.322 214.267C349.322 214.267 361.796 213.068 362.914 213.965C364.031 214.863 371.11 219.464 375.304 216.564C379.498 213.663 376.702 203.57 376.702 203.17C376.702 202.769 376.307 188.482 376.307 188.482L368.807 178.388L359.415 160.717L340.227 158.82L340.746 186.887L340.648 201.279L349.322 214.267Z" fill="#D0CDE1"/>
<path opacity="0.503" d="M349.322 214.267C349.322 214.267 361.796 213.068 362.914 213.965C364.031 214.863 371.11 219.464 375.304 216.564C379.498 213.663 376.702 203.57 376.702 203.17C376.702 202.769 376.307 188.482 376.307 188.482L368.807 178.388L359.415 160.717L340.227 158.82L340.746 186.887L340.648 201.279L349.322 214.267Z" fill="#D8D8D8"/>
<path d="M239.384 115.326C239.384 115.326 238.391 127.519 230.792 127.717C230.792 127.717 228.641 126.417 225.746 124.255C219.072 119.26 208.48 109.66 211.406 100.731C215.606 87.9406 235.99 111.526 235.99 111.526L237.549 113.283L239.384 115.326Z" fill="#D8D8D8"/>
<path opacity="0.1" d="M239.378 115.327C239.378 115.327 238.385 127.52 230.786 127.717C230.786 127.717 228.634 126.418 225.739 124.256L225.09 123.424C226.377 124.096 227.797 124.478 229.248 124.541C231.155 124.583 233.302 123.876 234.679 121.121C235.469 119.552 236.164 117.936 236.758 116.283C237.123 115.314 237.38 114.309 237.527 113.285L239.378 115.327Z" fill="black"/>
<path d="M236.087 137.41L234.376 135.212L228.607 127.805L225.676 124.022C226.962 124.697 228.382 125.081 229.834 125.144C231.741 125.186 233.888 124.479 235.271 121.719C236.061 120.15 236.755 118.534 237.35 116.88C238.301 114.183 238.28 112.793 237.949 112.327C237.618 111.862 240.07 114.141 241.25 115.259L241.291 115.3C241.629 115.612 241.847 115.82 241.847 115.82L242.05 116.226L244.945 122.016L244.976 122.26C245.239 124.1 246.217 135.757 236.087 137.41Z" fill="white"/>
<path d="M295.953 394.652C295.953 394.652 287.56 400.15 283.364 399.329C279.168 398.508 274.866 400.732 274.866 400.732C271.975 403.892 268.328 406.265 264.268 407.63C257.475 409.927 247.985 409.028 242.59 407.224C240.033 406.377 239.83 405.275 241.057 403.924C242.423 402.412 245.558 400.587 249.186 398.43C256.077 394.334 263.473 386.237 263.473 386.237C263.473 386.237 263.572 384.241 264.773 383.342C265.508 382.713 266.183 382.017 266.789 381.263C267.86 379.994 268.868 378.664 268.868 378.664L293.556 379.465C293.556 379.465 293.977 381.247 294.304 383.066C294.579 384.558 294.794 386.076 294.652 386.663C294.351 387.958 295.354 389.158 295.354 389.158L295.796 393.238L295.953 394.652Z" fill="#393939"/>
<path d="M347.631 401.543C347.335 402.738 346.977 404.885 346.814 405.893C346.759 406.236 346.73 406.444 346.73 406.444C346.73 406.444 344.729 410.841 333.638 412.442C322.547 414.043 322.547 408.742 322.547 408.742C322.547 408.742 322.588 408.17 322.661 407.312C322.854 404.973 323.254 400.5 323.545 399.547C323.945 398.248 323.248 392.551 323.248 392.551L323.129 386.595L323.046 382.437L341.438 380.535C341.554 381.911 341.752 383.278 342.03 384.631C342.145 385.374 342.42 386.083 342.835 386.71C343.833 387.817 344.436 392.707 344.436 392.707C344.436 392.707 348.021 399.942 347.631 401.543Z" fill="#393939"/>
<path opacity="0.1" d="M293.574 379.462C293.574 379.462 293.995 381.244 294.322 383.063C291.656 383.554 279.998 385.574 277.082 384.16C273.787 382.559 266.688 381.66 266.688 381.66L266.807 381.255C267.878 379.987 268.886 378.656 268.886 378.656L293.574 379.462Z" fill="black"/>
<path opacity="0.1" d="M342.02 384.655C337.343 383.865 327.145 385.778 323.122 386.599L323.039 382.441L341.428 380.539C341.544 381.922 341.742 383.296 342.02 384.655Z" fill="black"/>
<path d="M352.414 233.154L352.014 247.244C352.014 247.244 352.534 268.731 351.016 272.13C349.498 275.529 349.514 289.219 349.514 289.219C349.514 289.219 350.517 295.716 349.415 297.109C348.313 298.502 349.114 303.709 349.935 306.407C350.757 309.105 350.029 315.804 350.029 315.804L349.832 353.579C349.832 353.579 348.735 363.371 347.332 364.774C346.929 365.189 346.643 365.703 346.503 366.265C346.364 366.826 346.375 367.415 346.537 367.97C346.537 367.97 345.338 373.563 345.638 374.564C345.937 375.566 346.537 377.859 344.24 378.956C341.943 380.053 342.535 383.556 342.535 383.556C337.041 382.257 321.454 385.76 321.454 385.76C321.454 385.76 318.336 379.362 317.052 375.064C315.768 370.765 318.954 368.068 321.049 367.787C323.143 367.506 319.552 363.785 319.552 363.785C319.552 363.785 319.952 363.265 318.952 359.689C317.953 356.114 319.149 346.893 319.472 344.497C319.795 342.102 321.27 330.506 321.27 330.506C321.27 330.506 320.475 315.818 321.073 315.215C321.671 314.613 323.672 308.817 322.674 306.9C321.676 304.982 320.075 292.508 320.075 291.827C320.075 291.146 318.776 274.935 318.776 274.935C318.776 274.935 317.581 263.641 317.877 261.246C318.173 258.85 317.076 249.957 317.076 249.957C317.076 242.555 312.783 234.562 312.783 234.562L312.674 234.848L303.387 259.276C303.387 259.276 301.89 266.667 300.586 270.866C299.767 273.717 299.117 276.613 298.637 279.541L298.549 280.06C298.512 280.284 298.481 280.476 298.46 280.622L298.398 281.027C298.398 281.027 299.095 286.323 297.998 288.023C296.902 289.723 295.655 294.816 295.655 296.235C295.655 297.654 295.748 303.038 295.748 303.038C295.748 303.038 296.154 313.73 295.052 314.93C293.95 316.131 294.532 317.129 294.532 317.129C294.532 317.129 296.335 325.221 295.535 327.32C294.735 329.419 295.338 334.311 295.338 334.311C295.338 334.311 293.753 349.768 293.576 350.578C293.4 351.389 292.277 357.574 293.472 358.073C294.667 358.571 296.97 361.57 296.97 361.57C296.97 361.57 297.49 374.663 295.675 375.661C293.861 376.659 294.87 381.758 294.87 381.758C294.87 381.758 280.385 384.559 277.085 382.957C273.784 381.354 266.69 380.457 266.69 380.457L267.683 377.172C267.628 377.287 266.965 378.352 266.492 374.261C265.972 369.963 270.193 372.063 270.193 372.063C270.193 372.063 273.488 372.864 268.187 367.666C262.886 362.469 265.489 357.172 265.789 357.172C266.088 357.172 266.787 349.48 266.787 349.48C266.787 349.48 267.686 344.88 266.984 341.284C266.282 337.687 265.69 326.492 265.69 326.492C265.69 326.492 266.209 317.999 265.29 314.902C264.37 311.804 265.889 306.206 266.189 304.902C266.488 303.597 265.29 291.713 265.29 291.713C265.29 291.713 266.293 286.121 265.69 282.025C265.086 277.93 266.292 262.836 266.292 262.836L268.091 245.445C268.091 245.445 269.385 240.05 269.187 237.852C268.989 235.654 270.684 227.977 270.684 227.977C270.684 227.977 270.487 225.176 271.485 223.181C272.483 221.187 272.888 214.59 272.888 214.59L282.483 192.599L287.16 173.213L350.621 172.613C350.621 172.613 350.855 174.292 351.234 177.348C351.613 180.404 352.164 184.931 352.793 190.513C353.344 195.586 353.947 201.552 354.537 208.185C356.411 229.354 352.414 233.154 352.414 233.154Z" fill="#393939"/>
<path d="M346.524 58.1621L331.727 73.9572C331.727 73.9572 312.746 66.3586 314.742 63.7601C315.516 62.7519 315.391 59.6019 314.945 56.0759C314.243 50.546 312.746 44.1686 312.746 44.1686C312.746 44.1686 345.921 38.7733 343.12 44.3659C342.081 46.414 342.278 48.7993 342.912 51.0032C343.723 53.5679 344.943 55.9847 346.524 58.1599V58.1621Z" fill="#D8D8D8"/>
<path opacity="0.1" d="M343.12 44.3659C342.081 46.414 341.613 46.6112 342.252 48.8151C337.912 53.4927 332.377 58.5605 325.537 58.5605C321.861 58.5662 318.234 57.7155 314.945 56.0759C314.243 50.546 312.746 44.1686 312.746 44.1686C312.746 44.1686 345.921 38.7733 343.12 44.3659Z" fill="black"/>
<path d="M349.323 34.1742C349.323 40.4833 346.817 46.534 342.355 50.9952C337.894 55.4563 331.844 57.9626 325.534 57.9626C319.225 57.9626 313.175 55.4563 308.714 50.9952C304.252 46.534 301.746 40.4833 301.746 34.1742C301.746 34.0598 301.746 33.9453 301.746 33.8314C301.792 27.5237 304.341 21.4923 308.833 17.0642C313.326 12.6361 319.393 10.1739 325.701 10.2194C332.009 10.2648 338.04 12.8142 342.468 17.3066C346.896 21.799 349.358 27.8665 349.313 34.1742H349.323Z" fill="#D8D8D8"/>
<path opacity="0.1" d="M352.761 191.091C349.612 191.117 339.118 191.205 327.393 191.392H327.252L323.377 191.457H323.257C309.354 191.681 295.654 188.962 290.155 189.482C278.46 190.579 294.351 178.687 294.351 178.687C303.064 180.802 312.028 181.708 320.988 181.38L324.351 181.208C334.978 180.605 345.659 179.607 351.232 177.934C351.618 181.018 352.159 185.53 352.761 191.091Z" fill="black"/>
<path d="M352.764 190.494C349.614 190.494 339.121 190.608 327.395 190.79H327.254L323.377 190.858H323.257C309.354 191.081 295.654 188.363 290.155 188.877C278.46 189.974 294.351 178.087 294.351 178.087C303.065 180.199 312.028 181.105 320.988 180.779L324.351 180.602C334.978 180.003 345.659 179.002 351.232 177.328C351.62 180.416 352.161 184.912 352.764 190.494Z" fill="#393939"/>
<path opacity="0.1" d="M319.136 64.757L300.747 73.3535L286.559 183.081C286.559 183.081 294.951 179.287 299.747 181.684C304.543 184.08 319.331 181.886 319.331 181.886C319.331 181.886 330.126 181.284 331.727 182.486C333.327 183.688 352.109 177.491 352.109 177.491C352.109 177.491 355.508 169.892 352.909 168.697C350.311 167.502 353.71 155.704 353.71 155.704L352.109 76.552L348.913 66.3609L340.321 61.1602L331.516 68.1561L327.358 68.7555L319.136 64.757Z" fill="black"/>
<path d="M319.136 63.5554L300.747 72.152L286.559 181.89C286.559 181.89 294.951 178.091 299.747 180.492C304.543 182.893 319.331 180.689 319.331 180.689C319.331 180.689 330.126 180.09 331.727 181.289C333.327 182.488 352.109 176.294 352.109 176.294C352.109 176.294 355.508 168.701 352.909 167.5C350.311 166.299 353.71 154.507 353.71 154.507L352.109 75.3445L348.913 65.1533L340.321 59.9531L331.516 66.9539L327.358 67.5463L319.136 63.5554Z" fill="white"/>
<path opacity="0.1" d="M318.836 68.6527C318.836 68.6527 324.132 74.9466 324.034 76.2459C323.935 77.5451 323.737 80.6428 323.737 80.6428L319.735 88.7406C319.735 88.7406 317.537 98.8342 317.537 100.934C317.537 103.034 314.039 121.204 314.039 121.204L309.843 149.187L304.547 185.864L309.942 195.157L316.34 189.762L324.833 124.399L326.631 111.509C326.631 111.509 328.528 88.3237 328.528 85.9274C328.528 83.5312 327.432 77.2323 327.432 77.2323C327.432 77.2323 328.731 71.2342 334.126 69.8364C339.522 68.4385 333.726 69.535 333.726 69.535L330.608 67.0352L327.91 68.1371C327.91 68.1371 320.437 65.8564 318.836 68.6527Z" fill="black"/>
<path d="M318.236 68.068C318.236 68.068 323.532 74.362 323.433 75.6612C323.335 76.9604 323.132 80.0581 323.132 80.0581L319.135 88.156C319.135 88.156 316.963 98.2381 316.963 100.334C316.963 102.429 313.465 120.604 313.465 120.604L309.239 148.628L303.969 185.281L309.369 194.579L315.736 189.169L324.238 123.821L326.036 110.931C326.036 110.931 327.933 87.7456 327.933 85.3444C327.933 82.9432 326.837 76.6493 326.837 76.6493C326.837 76.6493 328.136 70.6545 333.531 69.2533C338.926 67.8522 333.131 68.9569 333.131 68.9569L330.013 66.457L327.357 67.547C327.357 67.547 319.836 65.2581 318.236 68.068Z" fill="#393939"/>
<path opacity="0.1" d="M314.741 57.5625C314.741 57.5625 313.941 58.162 313.743 62.1572C313.546 66.1525 310.746 75.1506 310.746 75.1506C310.746 75.1506 321.141 67.952 326.338 68.7526L314.741 57.5625Z" fill="black"/>
<path d="M314.741 56.3633C314.741 56.3633 313.941 56.9628 313.743 60.9629C313.546 64.9631 310.746 73.9563 310.746 73.9563C310.746 73.9563 321.141 66.7626 326.338 67.5637L314.741 56.3633Z" fill="white"/>
<path opacity="0.1" d="M343.123 54.3633L326.73 68.7551C326.73 68.7551 340.524 76.9516 342.323 78.9522C344.121 80.9529 345.919 59.3607 345.919 59.3607L343.123 54.3633Z" fill="black"/>
<path d="M343.721 53.168L327.359 67.5494C327.359 67.5494 341.147 75.7405 342.952 77.7406C344.756 79.7407 346.554 58.1513 346.554 58.1513L343.721 53.168Z" fill="white"/>
<path opacity="0.1" d="M315.339 57.5645C315.339 57.5645 313.541 56.6652 311.842 59.2643C310.142 61.8633 306.945 63.0584 306.945 63.0584C306.945 63.0584 288.755 65.9588 288.058 68.3545L279.566 68.8744C279.566 68.8744 276.568 69.2695 276.265 75.569C275.962 81.8684 274.347 82.4504 274.347 82.4504C274.347 82.4504 270.85 88.6458 271.146 91.8421C271.442 95.0384 268.448 96.6379 268.448 96.6379L280.922 129.119C280.922 129.119 281.322 142.513 279.02 147.408C276.718 152.304 272.426 173.993 272.426 173.993C272.426 173.993 274.229 173.593 274.126 174.788C274.022 175.983 271.927 189.081 271.927 189.081C271.927 189.081 271.328 194.279 270.331 196.077C269.335 197.876 269.23 207.273 269.23 207.273L267.629 214.066C267.629 214.066 271.428 222.564 277.223 221.342C283.019 220.121 293.58 197.486 293.58 197.486L300.274 173.002L305.472 148.818L306.969 132.431L309.37 96.1523L312.868 72.1661C312.868 72.1661 316.743 59.2664 315.339 57.5645Z" fill="black"/>
<path d="M314.741 56.3613C314.741 56.3613 312.943 55.4621 311.244 58.0611C309.544 60.6601 306.348 61.8602 306.348 61.8602C306.348 61.8602 288.157 64.7551 287.46 67.1563L278.962 67.6762C278.962 67.6762 275.965 68.0762 275.667 74.3708C275.37 80.6653 273.765 81.2675 273.765 81.2675C273.765 81.2675 270.268 87.4628 270.569 90.6591C270.87 93.8554 267.871 95.4549 267.871 95.4549L280.345 127.936C280.345 127.936 280.745 141.33 278.448 146.225C276.151 151.121 271.854 172.81 271.854 172.81C271.854 172.81 273.653 172.41 273.554 173.611C273.455 174.811 271.355 187.898 271.355 187.898C271.355 187.898 270.756 193.096 269.755 194.894C268.754 196.693 268.658 206.09 268.658 206.09L267.07 212.861C267.07 212.861 270.869 221.359 276.665 220.138C282.46 218.916 292.954 196.256 292.954 196.256L299.653 171.771L304.85 147.582L306.352 131.194L308.75 94.916L312.248 70.9298C312.248 70.9298 316.139 58.0606 314.741 56.3613Z" fill="#393939"/>
<path opacity="0.1" d="M250.576 133.712L244.78 137.716C244.78 137.716 235.945 137.996 229.583 136.437L226.361 135.003L225.711 134.722L226.376 134.93C229.718 135.923 232.332 135.901 234.375 135.216C242.576 132.456 241.652 118.912 241.355 115.845C241.324 115.538 241.301 115.325 241.288 115.263C241.286 115.251 241.286 115.239 241.288 115.227L241.334 115.304C241.446 115.489 241.574 115.663 241.716 115.824C241.83 115.954 241.95 116.089 242.08 116.214L244.975 122.004L245.006 122.248L250.576 133.712Z" fill="black"/>
<path d="M270.664 94.6367L267.867 95.4373L267.467 101.155C267.467 101.155 264.167 100.635 263.268 104.554C262.368 108.473 260.773 110.271 260.773 110.271C260.773 110.271 255.274 114.871 254.973 118.764L251.578 120.843C251.578 120.843 243.676 119.003 241.885 115.829C241.885 115.829 245.482 141.613 226.293 135.314C226.293 135.314 247.779 144.711 248.777 146.01C249.775 147.31 256.376 151.104 262.368 147.907C268.361 144.711 269.666 139.794 269.666 139.794C269.666 139.794 275.461 131.697 275.664 130.496C275.867 129.295 280.341 127.897 280.341 127.897L288.938 107.106L270.664 94.6367Z" fill="#393939"/>
<path opacity="0.1" d="M340.827 66.3565L343.721 53.168C343.721 53.168 345.021 57.4662 346.32 58.4641L350.619 61.759C350.619 61.759 354.917 63.7602 356.414 63.7602C357.911 63.7602 366.008 65.8393 367.006 66.9565C368.004 68.0737 372.006 67.2579 372.006 67.2579C372.006 67.2579 375.301 68.3544 378.202 69.0563C381.102 69.7582 382.5 74.5552 381.897 76.4522C381.656 77.3968 381.658 78.3873 381.903 79.3308C382.149 80.2744 382.63 81.1403 383.301 81.8475C384.496 83.0465 385.099 86.9464 385.099 86.9464C386.569 87.4249 387.789 88.4657 388.493 89.8413C389.497 92.0398 389.195 96.8372 389.195 96.8372L374.305 117.824C374.305 117.824 374.502 125.922 373.905 127.699C373.307 129.477 375.984 160.079 375.984 160.079L379.102 212.646C379.102 212.646 375.007 216.144 374.107 216.544C373.208 216.945 372.304 197.953 372.304 197.257C372.304 196.561 349.223 162.678 349.223 162.678C349.223 162.678 346.104 157.679 346.104 156.582C346.104 155.485 343.204 145.386 343.204 145.386L338.805 125.898L340.827 66.3565Z" fill="black"/>
<path d="M390.431 95.6909C390.431 96.377 390.394 96.8353 390.394 96.8353L375.516 117.807C375.516 117.807 375.725 125.899 375.121 127.682C374.773 128.721 375.537 139.48 376.244 148.31C376.764 154.687 377.221 160.062 377.221 160.062L378.536 182.358L380.314 212.628C380.314 212.628 376.218 216.126 375.319 216.527C374.42 216.927 373.521 197.935 373.521 197.234C373.521 196.533 350.434 162.661 350.434 162.661C350.434 162.661 347.315 157.661 347.315 156.564C347.315 155.467 344.42 145.369 344.42 145.369L340.023 125.878L342.019 66.3213L343.719 53.1328C343.719 53.1328 346.219 57.4311 347.518 58.424C348.817 59.417 351.811 61.7244 351.811 61.7244C351.811 61.7244 356.11 63.7256 357.612 63.7256C359.114 63.7256 367.206 65.8047 368.204 66.9219C369.202 68.0391 373.204 67.2233 373.204 67.2233C373.204 67.2233 376.499 68.3198 379.394 69.0217C382.289 69.7236 383.692 74.5206 383.094 76.4122C382.851 77.357 382.852 78.3482 383.096 79.2927C383.341 80.2372 383.821 81.1041 384.492 81.8124C385.691 83.0113 386.291 86.9058 386.291 86.9058C387.763 87.3876 388.985 88.432 389.69 89.8111C390.389 91.3615 390.456 94.1333 390.431 95.6909Z" fill="#393939"/>
<path opacity="0.1" d="M268.266 361.973C268.786 361.973 289.752 362.773 289.351 366.172C288.951 369.571 268.266 361.973 268.266 361.973Z" fill="black"/>
<path opacity="0.1" d="M272.969 367.668C272.969 367.668 287.059 369.965 283.364 372.065C279.668 374.165 272.969 367.668 272.969 367.668Z" fill="black"/>
<path opacity="0.1" d="M325.332 359.773C325.332 359.773 348.72 361.775 345.224 364.368C341.727 366.962 333.431 367.366 333.03 367.487C332.63 367.608 325.332 359.773 325.332 359.773Z" fill="black"/>
<path opacity="0.1" d="M322.535 370.07C322.535 370.07 335.529 372.269 335.924 374.748C336.319 377.227 322.535 370.07 322.535 370.07Z" fill="black"/>
<path opacity="0.1" d="M329.73 309.902C329.73 309.902 341.622 312.699 342.324 314.58L329.73 309.902Z" fill="black"/>
<path opacity="0.1" d="M283.856 318.5C283.856 318.5 277.661 320.298 283.659 323.895C289.657 327.492 283.856 318.5 283.856 318.5Z" fill="black"/>
<path opacity="0.1" d="M311.34 222.457C312.041 222.457 322.935 218.86 326.73 220.461C330.524 222.063 335.227 222.057 335.227 222.057L311.34 222.457Z" fill="black"/>
<path opacity="0.1" d="M312.74 233.866L312.631 234.854L303.344 259.281C303.344 259.281 301.847 266.672 300.543 270.871C299.724 273.722 299.073 276.619 298.594 279.546L306.844 228.398L312.74 233.866Z" fill="black"/>
<path d="M327.253 190.789L323.375 190.856H323.256L320.984 180.784C322.102 180.729 323.219 180.669 324.347 180.602L327.253 190.789Z" fill="#393939"/>
<path d="M374.398 178.591L371.909 180.64L363.595 187.475C363.595 187.475 341.105 199.47 334.91 188.077C329.448 178.041 354.946 170.874 361.084 169.309C361.921 169.096 362.392 168.992 362.392 168.992L374.398 178.591Z" fill="#D8D8D8"/>
<path opacity="0.1" d="M278.363 80.3477C278.363 80.3477 282.76 82.3434 283.759 85.1435C284.757 87.9436 278.363 80.3477 278.363 80.3477Z" fill="black"/>
<path opacity="0.1" d="M264.772 110.328C264.772 110.328 258.374 118.124 260.973 121.123C263.572 124.122 264.772 110.328 264.772 110.328Z" fill="black"/>
<path opacity="0.1" d="M379.102 84.7461C379.102 84.7461 373.104 85.3456 372.906 90.5414L379.102 84.7461Z" fill="black"/>
<path opacity="0.1" d="M323.531 166.692C324.131 166.092 337.923 145.704 341.119 147.503L323.531 166.692Z" fill="black"/>
<path opacity="0.1" d="M349.315 34.176C349.32 38.093 348.354 41.9502 346.503 45.4026L346.327 45.3715C344.819 45.0543 344.034 43.2924 342.881 42.2008C342.173 41.5266 341.273 41.0909 340.305 40.9549C339.337 40.8188 338.351 40.9892 337.485 41.4422C336.611 41.9665 335.899 42.7242 335.431 43.6304C334.963 44.5365 334.756 45.5552 334.835 46.5721C334.076 43.3703 334.315 39.9664 333.571 36.7592C332.828 33.552 330.588 30.3093 327.527 30.2521C326.207 30.2521 324.663 30.7426 323.712 29.7322C323.135 29.1327 323.016 28.173 322.584 27.4711C320.396 23.9287 313.748 25.7195 311.015 27.5332C308.385 29.2771 305.129 32.2527 301.75 33.8119C301.795 27.5041 304.345 21.4728 308.837 17.0447C311.062 14.8521 313.696 13.1191 316.59 11.9447C319.484 10.7702 322.582 10.1773 325.705 10.1998C328.828 10.2223 331.916 10.8598 334.793 12.0758C337.67 13.2919 340.28 15.0626 342.472 17.2871C344.665 19.5115 346.398 22.146 347.572 25.0401C348.747 27.9343 349.339 31.0314 349.317 34.1547L349.315 34.176Z" fill="black"/>
<path d="M322.588 26.8885C323.024 27.6111 323.139 28.5567 323.716 29.1496C324.667 30.1371 326.211 29.633 327.531 29.6695C330.592 29.724 332.832 32.9699 333.575 36.1766C334.318 39.3832 334.095 42.7823 334.838 45.9862C334.76 44.9698 334.967 43.9518 335.436 43.0468C335.906 42.1418 336.618 41.3856 337.493 40.8634C338.358 40.4111 339.343 40.2405 340.309 40.3757C341.276 40.5109 342.176 40.9449 342.883 41.6171C344.037 42.7136 344.822 44.4706 346.329 44.7878C347.837 45.105 349.292 43.6597 349.832 42.0694C350.373 40.4792 350.352 38.738 350.695 37.0905C351.376 33.9721 353.408 31.4227 354.536 28.4575C355.875 24.8498 355.838 20.8756 354.432 17.2936C353.684 15.4172 352.566 13.7283 351.834 11.8519C350.68 9.00387 344.282 5.1683 342.883 2.45484C340.529 -2.08756 342.047 0.744696 337.493 2.45484C335.321 3.27231 332.473 0.365391 330.269 1.08803C327.312 2.03412 324.157 1.32183 321.096 0.895656C318.034 0.469482 314.661 0.428063 312.203 2.45484C309.375 4.76774 308.601 9.11777 305.966 11.6596C304.849 12.725 303.459 13.4035 302.281 14.3932C301.102 15.3829 300.087 16.8456 300.202 18.4522C300.378 20.5313 302.405 22.4022 301.657 24.32C301.386 24.8741 301.01 25.3701 300.55 25.7805C298.321 28.1127 296.664 30.931 295.711 34.013C301.059 35.6812 306.849 29.7872 311.033 27.0018C313.742 25.1418 320.4 23.3695 322.588 26.8885Z" fill="#393939"/>
<path opacity="0.1" d="M374.401 178.594L371.911 180.642C369.718 177.004 360.711 169.692 360.711 169.692L361.101 169.317C361.937 169.104 362.409 169 362.409 169L374.401 178.594Z" fill="black"/>
<path d="M376.801 174.891C376.801 174.891 375.907 177.116 374.982 179.049C374.056 180.983 373.054 182.719 373.001 181.3C372.903 178.499 361.312 169.102 361.312 169.102L362.872 167.576L364.696 165.809L376.801 174.891Z" fill="white"/>
<path opacity="0.1" d="M377.204 160.098L378.519 182.395C375.4 177.566 366.892 165.191 361.406 165.591L374.704 150.306C375.256 149.688 375.765 149.032 376.226 148.344C376.735 154.724 377.204 160.098 377.204 160.098Z" fill="black"/>
<path opacity="0.1" d="M376.804 174.89C376.804 174.89 375.911 177.114 374.985 179.048C371.503 174.272 366.711 168.627 362.887 167.572L364.711 165.805L376.804 174.89Z" fill="black"/>
<path d="M386.795 94.0547L390.392 96.851C390.392 96.851 396.387 96.9551 396.986 101.95C397.586 106.945 403.083 109.226 403.083 109.226C403.083 109.226 407.178 113.322 407.178 115.221C407.178 117.12 410.297 120.523 410.297 120.819C410.297 121.115 413.294 127.217 412.895 128.313C412.496 129.41 416.092 134.212 414.974 136.011C414.07 137.623 413.268 139.292 412.573 141.005C412.573 141.005 407.896 150.002 405.479 151.702C403.062 153.401 392.09 167.689 392.09 167.689C392.09 167.689 380.297 181.28 380.297 185.48C380.297 185.48 368.798 166.291 362.008 166.769L375.298 151.478C375.298 151.478 377.6 148.983 377.699 147.481C377.798 145.979 384.091 139.089 387.091 138.786C387.091 138.786 387.61 134.691 386.29 134.59C384.969 134.489 383.892 131.289 383.892 131.289C383.892 131.289 375.098 120.894 374.999 114.299C374.9 107.704 386.795 94.0547 386.795 94.0547Z" fill="#393939"/>
<path opacity="0.1" d="M392.095 103.535C392.095 103.535 383.695 109.73 385.5 111.726C387.305 113.722 392.095 103.535 392.095 103.535Z" fill="black"/>
<path opacity="0.1" d="M295.953 394.652C295.953 394.652 287.56 400.151 283.364 399.33C279.168 398.508 274.866 400.733 274.866 400.733C271.975 403.892 268.328 406.266 264.268 407.63C257.475 409.927 247.985 409.028 242.59 407.225C240.033 406.377 239.83 405.276 241.057 403.924C246.924 405.094 260.038 407.417 263.572 405.728C268.167 403.529 274.762 398.732 274.762 398.732C274.762 398.732 283.364 397.533 284.559 397.533C285.411 397.533 292.049 394.794 295.796 393.219L295.953 394.652Z" fill="black"/>
<path opacity="0.1" d="M282.51 102.336C282.51 102.336 282.51 125.122 280.561 127.372C278.612 129.622 282.51 102.336 282.51 102.336Z" fill="black"/>
<path opacity="0.1" d="M372.602 109.68L375.497 117.822C375.497 117.822 376.65 109.831 372.602 109.68Z" fill="black"/>
<g opacity="0.1">
<path opacity="0.1" d="M301.945 22.3307C302.678 20.4543 300.761 18.6199 300.511 16.6133C300.256 17.1803 300.145 17.8018 300.189 18.4221C300.319 19.9344 301.436 21.3535 301.748 22.7514C301.828 22.6178 301.894 22.4767 301.945 22.3301V22.3307Z" fill="black"/>
<path opacity="0.1" d="M335.113 43.8517C334.396 40.6968 334.593 37.3599 333.876 34.2105C333.159 31.061 330.898 27.7552 327.837 27.7034C326.517 27.7034 324.973 28.1868 324.016 27.1835C323.445 26.5911 323.325 25.6243 322.894 24.9224C320.706 21.38 314.058 23.1784 311.319 24.99C307.228 27.7083 301.615 33.3892 296.376 32.0998C296.121 32.708 295.886 33.3211 295.695 33.9527C301.043 35.6209 306.834 29.7269 311.017 26.9415C313.746 25.1278 320.404 23.3032 322.592 26.874C323.028 27.5966 323.143 28.5421 323.72 29.1351C324.671 30.1226 326.215 29.6185 327.535 29.655C330.596 29.7095 332.837 32.9554 333.58 36.1621C334.322 39.3687 334.1 42.7678 334.842 45.9717C334.791 45.2554 334.884 44.5361 335.115 43.8561L335.113 43.8517Z" fill="black"/>
<path opacity="0.1" d="M350.142 40.1C349.622 41.6903 348.172 43.1459 346.634 42.8184C345.096 42.4909 344.341 40.7393 343.193 39.6477C342.485 38.9743 341.584 38.5395 340.617 38.4044C339.649 38.2692 338.663 38.4404 337.798 38.894C336.965 39.3919 336.279 40.1035 335.813 40.9551C335.347 41.8067 335.117 42.7674 335.147 43.7378C335.546 42.5147 336.385 41.4831 337.501 40.8428C338.366 40.3905 339.351 40.22 340.317 40.3551C341.284 40.4903 342.184 40.9244 342.891 41.5966C344.045 42.6931 344.83 44.4501 346.337 44.7672C347.845 45.0844 349.3 43.6391 349.84 42.0489C350.127 41.1152 350.311 40.1534 350.391 39.1801C350.326 39.4914 350.243 39.7986 350.142 40.1Z" fill="black"/>
<path opacity="0.1" d="M354.834 26.4867C353.711 29.4492 351.673 32.0063 350.998 35.1246C350.863 35.7535 350.785 36.3982 350.707 37.0424C351.393 33.924 353.415 31.3877 354.538 28.4355C355.037 27.099 355.349 25.6996 355.464 24.2773C355.311 25.0284 355.1 25.7668 354.835 26.4861L354.834 26.4867Z" fill="black"/>
</g>
<path d="M218.766 101.005L218.728 101.024C218.626 101.075 218.585 101.2 218.636 101.302L220.139 104.283C220.19 104.386 220.315 104.427 220.417 104.375L220.455 104.356C220.557 104.304 220.598 104.18 220.547 104.078L219.044 101.096C218.993 100.994 218.868 100.953 218.766 101.005Z" fill="#3A3768"/>
<path d="M214.509 95.2825L203.09 101.037C202.488 101.34 202.246 102.074 202.549 102.676L215.381 128.139C215.684 128.742 216.418 128.984 217.02 128.68L228.439 122.926C229.041 122.623 229.283 121.889 228.98 121.287L216.148 95.8233C215.845 95.2212 215.111 94.9791 214.509 95.2825Z" fill="#393939"/>
<path d="M212.975 96.9401C212.908 96.9697 212.849 97.0129 212.8 97.0669C212.752 97.1209 212.715 97.1844 212.692 97.2535C212.67 97.3225 212.662 97.3956 212.67 97.4678C212.677 97.5401 212.699 97.61 212.735 97.6731L212.79 97.7717C212.826 97.8351 212.848 97.9053 212.855 97.9778C212.862 98.0503 212.854 98.1234 212.831 98.1925C212.808 98.2617 212.771 98.3251 212.722 98.3789C212.672 98.4327 212.613 98.4756 212.546 98.5047L206.782 101.41C206.719 101.446 206.649 101.469 206.577 101.476C206.505 101.483 206.432 101.476 206.363 101.453C206.293 101.43 206.23 101.394 206.176 101.345C206.122 101.296 206.079 101.237 206.049 101.171L205.995 101.067C205.965 101 205.922 100.941 205.868 100.892C205.814 100.844 205.75 100.807 205.681 100.784C205.612 100.762 205.539 100.754 205.467 100.761C205.395 100.769 205.325 100.791 205.262 100.827L204.139 101.389C204.016 101.45 203.906 101.535 203.816 101.639C203.726 101.743 203.658 101.863 203.615 101.994C203.572 102.124 203.555 102.262 203.566 102.399C203.576 102.536 203.614 102.67 203.676 102.792L215.938 127.131C216 127.254 216.085 127.364 216.188 127.454C216.292 127.544 216.413 127.613 216.543 127.656C216.674 127.699 216.812 127.715 216.949 127.705C217.086 127.694 217.219 127.657 217.342 127.594L227.399 122.526C227.521 122.465 227.63 122.38 227.72 122.276C227.809 122.173 227.877 122.053 227.92 121.923C227.963 121.793 227.98 121.656 227.97 121.52C227.96 121.383 227.923 121.25 227.861 121.128L215.615 96.7847C215.553 96.6629 215.468 96.5544 215.365 96.4654C215.261 96.3765 215.141 96.3088 215.011 96.2663C214.881 96.2239 214.744 96.2074 214.608 96.2179C214.472 96.2284 214.339 96.2657 214.217 96.3275L212.975 96.9401Z" fill="#4659FF"/>
<defs>
<linearGradient id="paint0_linear" x1="266.28" y1="337.002" x2="266.28" y2="168.512" gradientUnits="userSpaceOnUse">
<stop stop-color="#808080" stop-opacity="0.25"/>
<stop offset="0.54" stop-color="#808080" stop-opacity="0.12"/>
<stop offset="1" stop-color="#808080" stop-opacity="0.1"/>
</linearGradient>
<linearGradient id="paint1_linear" x1="82895" y1="126470" x2="82895" y2="50989.7" gradientUnits="userSpaceOnUse">
<stop stop-color="#808080" stop-opacity="0.25"/>
<stop offset="0.54" stop-color="#808080" stop-opacity="0.12"/>
<stop offset="1" stop-color="#808080" stop-opacity="0.1"/>
</linearGradient>
<linearGradient id="paint2_linear" x1="79464.7" y1="123979" x2="79464.7" y2="48500.6" gradientUnits="userSpaceOnUse">
<stop stop-color="#808080" stop-opacity="0.25"/>
<stop offset="0.54" stop-color="#808080" stop-opacity="0.12"/>
<stop offset="1" stop-color="#808080" stop-opacity="0.1"/>
</linearGradient>
<linearGradient id="paint3_linear" x1="19686.6" y1="75527.4" x2="19686.6" y2="49" gradientUnits="userSpaceOnUse">
<stop stop-color="#808080" stop-opacity="0.25"/>
<stop offset="0.54" stop-color="#808080" stop-opacity="0.12"/>
<stop offset="1" stop-color="#808080" stop-opacity="0.1"/>
</linearGradient>
</defs>
</svg>
