<svg width="22" height="24" viewBox="0 0 22 24" fill="none" xmlns="http://www.w3.org/2000/svg">
<path d="M4.78261 0C4.25951 0 3.82609 0.453125 3.82609 1V2H0.956522C0.706182 2 0.452106 2.0957 0.272758 2.28516C0.091542 2.47266 0 2.73828 0 3V23C0 23.2617 0.091542 23.5273 0.272758 23.7168C0.452106 23.9043 0.706182 24 0.956522 24H21.0435C21.2938 24 21.5479 23.9043 21.7291 23.7168C21.9085 23.5273 22 23.2617 22 23V3C22 2.73828 21.9085 2.47266 21.7291 2.28516C21.5479 2.0957 21.2938 2 21.0435 2H18.1739V1C18.1739 0.453125 17.7405 0 17.2174 0H16.2609C15.7378 0 15.3043 0.453125 15.3043 1V2H6.69565V1C6.69565 0.453125 6.26223 0 5.73913 0H4.78261ZM4.78261 1H5.73913V4H4.78261V1ZM16.2609 1H17.2174V4H16.2609V1ZM0.956522 3H3.82609V4C3.82609 4.54688 4.25951 5 4.78261 5H5.73913C6.26223 5 6.69565 4.54688 6.69565 4V3H15.3043V4C15.3043 4.54688 15.7378 5 16.2609 5H17.2174C17.7405 5 18.1739 4.54688 18.1739 4V3H21.0435V6.5H0.956522V3ZM0.956522 7.5H21.0435V23H0.956522V7.5ZM3.82609 9.5V21H18.1739V9.5H3.82609ZM4.78261 10.5H7.17391V13H4.78261V10.5ZM8.13043 10.5H10.5217V13H8.13043V10.5ZM11.4783 10.5H13.8696V13H11.4783V10.5ZM14.8261 10.5H17.2174V13H14.8261V10.5ZM4.78261 14H7.17391V16.5H4.78261V14ZM8.13043 14H10.5217V16.5H8.13043V14ZM11.4783 14H13.8696V16.5H11.4783V14ZM14.8261 14H17.2174V16.5H14.8261V14ZM4.78261 17.5H7.17391V20H4.78261V17.5ZM8.13043 17.5H10.5217V20H8.13043V17.5ZM11.4783 17.5H13.8696V20H11.4783V17.5ZM14.8261 17.5H17.2174V20H14.8261V17.5Z" fill="#4659FF"/>
</svg>
