<svg id="Layer_1" data-name="Layer 1" xmlns="http://www.w3.org/2000/svg" viewBox="0 0 672 81"><defs><style>.cls-1{opacity:0.5;}.cls-2{fill:#fff;}</style></defs><g class="cls-1"><path class="cls-2" d="M0,160.08,42.29,2.92H93.12q41.38,0,61.63,20.21,17.1,17.06,17.1,46,0,36.15-25.87,62-29,29-82.55,29Zm54.21-38.62H68.6q29,0,45-15.94a44.55,44.55,0,0,0,13.49-32.78q0-13.69-7.87-21.55Q110,41.53,88.4,41.54H75.8Z"/><path class="cls-2" d="M171.11,160.08,213.4,2.92H339.59L329.46,40H246.69l-6.52,23.8h75.12l-9.22,34.35H231L224.2,123h84.12l-9.9,37Z"/><path class="cls-2" d="M321.58,160.08,363.87,2.92h43.86l-31.94,119h75.12l-10.34,38.17Z"/><path class="cls-2" d="M534.11,163q-33.28,0-54.21-20Q459,122.82,459,92.5a89.52,89.52,0,0,1,7-34.57A99.28,99.28,0,0,1,485.3,28.29,89.8,89.8,0,0,1,515,7.86,92.38,92.38,0,0,1,552.78,0Q586.07,0,607,20.21q20.91,20,20.92,50.29a87.1,87.1,0,0,1-7.2,34.57,95.87,95.87,0,0,1-19.12,29.64,91.94,91.94,0,0,1-29.92,20.66A93,93,0,0,1,534.11,163Zm3.82-39.07q19.8,0,32.62-15.49,12.83-15.72,12.82-34.57,0-15.5-9.22-25.15-9-9.66-25.19-9.65-19.58,0-32.62,15.71Q503.52,70.5,503.52,89.13q0,15.5,9,25.15Q521.73,123.94,537.93,123.93Z"/><path class="cls-2" d="M655.06,161.2,644.94,2.92h45.21l2.92,90.93L747.51,2.47h37.78l6.08,91.38L843.1,2.92h47.46L795.41,161.2H756.28l-7.2-89.35L694,161.2Z"/></g></svg>