<svg id="Layer_1" data-name="Layer 1" xmlns="http://www.w3.org/2000/svg" viewBox="0 0 988 94"><defs><style>.cls-1{fill:#fff;fill-opacity:0.05;}</style></defs><path class="cls-1" d="M0,121.78,34.67,2.22H76.35q33.93,0,50.53,15.37,14,13,14,35,0,27.49-21.21,47.14-23.79,22-67.68,22ZM44.45,92.4h11.8Q80,92.4,93.13,80.28A32.74,32.74,0,0,0,104.2,55.34q0-10.43-6.46-16.4Q90.18,31.6,72.48,31.6H62.15Z"/><path class="cls-1" d="M140.3,121.78,175,2.22H278.43l-8.3,28.18H202.26l-5.34,18.11h61.6L251,74.64H189.36l-5.54,19h69l-8.12,28.18Z"/><path class="cls-1" d="M263.67,121.78,298.34,2.22h36L308.11,92.74h61.6l-8.48,29Z"/><path class="cls-1" d="M437.93,124q-27.3,0-44.45-15.2-17.14-15.37-17.15-38.43a63.75,63.75,0,0,1,5.72-26.3,75.24,75.24,0,0,1,15.86-22.55A73.89,73.89,0,0,1,422.25,6a80.72,80.72,0,0,1,31-6q27.3,0,44.45,15.37,17.15,15.21,17.15,38.26a62.27,62.27,0,0,1-5.9,26.3,72.63,72.63,0,0,1-15.68,22.55,75.62,75.62,0,0,1-24.52,15.71A81.54,81.54,0,0,1,437.93,124Zm3.13-29.72q16.23,0,26.74-11.78,10.51-12,10.52-26.31,0-11.77-7.57-19.13-7.38-7.34-20.65-7.34a34.38,34.38,0,0,0-26.74,12q-10.51,12-10.52,26.14,0,11.77,7.38,19.13Q427.78,94.28,441.06,94.28Z"/><path class="cls-1" d="M537.09,122.63,528.79,2.22h37.07l2.4,69.17L612.89,1.88h31l5,69.51L691.27,2.22h38.92l-78,120.41H620.09l-5.91-68-45.18,68Z"/><path class="cls-1" d="M709.08,121.78,743.75,2.22h35.78L744.86,121.78Z"/><path class="cls-1" d="M768.13,121.78,802.8,2.22h36L812.58,92.74h61.6l-8.49,29Z"/><path class="cls-1" d="M882,121.78,916.63,2.22h36L926.4,92.74H988l-8.48,29Z"/></svg>