<svg width="130" height="232" viewBox="0 0 130 232" fill="none" xmlns="http://www.w3.org/2000/svg">
<ellipse cx="63.4037" cy="224.434" rx="63.4037" ry="7.56522" fill="#C4C4C4" fill-opacity="0.27"/>
<path d="M126.086 25.3904V15.529C126.087 15.2023 126 14.8813 125.835 14.5989C125.669 14.3165 125.431 14.0829 125.144 13.922L119.601 10.8592C119.02 10.5296 116.719 11.8618 116.719 12.5211L118.285 29.4421L122.179 32.4225L126.072 30.1563L126.086 25.3904Z" fill="white"/>
<path d="M126.086 25.3904V15.529C126.087 15.2023 126 14.8813 125.835 14.5989C125.669 14.3165 125.431 14.0829 125.144 13.922L119.601 10.8592C119.02 10.5296 116.719 11.8618 116.719 12.5211L118.285 29.4421L122.179 32.4225L126.072 30.1563L126.086 25.3904Z" fill="#E3EEFF"/>
<path d="M124.645 26.6204V16.4501C124.647 16.1155 124.559 15.7866 124.39 15.498C124.222 15.2093 123.979 14.9714 123.688 14.8092L118.057 11.6407C117.921 11.5649 117.768 11.5259 117.612 11.5274C117.457 11.5289 117.304 11.5708 117.169 11.6492C117.035 11.7275 116.923 11.8396 116.844 11.9744C116.765 12.1093 116.722 12.2623 116.72 12.4187V30.8074L120.676 33.8627L124.631 31.5429L124.645 26.6204Z" fill="white"/>
<path d="M123.204 25.9366V18.2075L117.44 14.4092V27.1939L118.707 31.4952L121.393 32.4216C121.393 32.4216 122.824 31.7863 122.824 31.5878" fill="#4659FF"/>
<path d="M35.2196 99.7437L36.0244 100.869L33.1269 58.1419L32.5501 49.5577L35.3039 41.7881L30.7526 48.7659C27.9088 54.9749 22.0065 67.9625 20.3566 71.5184C18.4652 75.6022 31.7721 94.8265 35.2196 99.7437Z" fill="#EFEFEF"/>
<path d="M55.8608 216.757C57.1629 217.372 58.2388 218.405 58.9294 219.701C59.0726 219.989 59.1161 220.318 59.0526 220.635C58.9523 220.87 58.8034 221.079 58.6164 221.248C58.4294 221.416 58.2089 221.541 57.9704 221.612C54.5182 223.027 50.614 222.758 47.0111 222.079C43.3949 221.164 39.702 220.609 35.9833 220.423C35.6684 220.475 35.3464 220.457 35.0391 220.369C34.7317 220.281 34.4464 220.125 34.2024 219.913C33.973 219.559 33.8624 219.136 33.8873 218.71C33.7377 215.37 34.2988 212.036 35.5312 208.943C35.449 209.142 45.2987 209.552 46.148 210.147C47.7097 211.265 49.0112 212.694 50.6825 213.728C52.3538 214.761 54.121 215.738 55.8608 216.757Z" fill="#282328"/>
<path d="M42.2696 145.523C42.3372 158.293 41.333 171.047 39.2676 183.65C38.934 185.842 38.5726 188.02 38.1279 190.198C34.8478 206.293 34.5837 210.386 34.5837 210.386H47.7596C47.7596 210.386 57.4886 164.808 61.1022 154.43C63.8354 146.564 65.968 138.503 67.4816 130.316C68.0716 126.436 67.5911 122.469 66.0918 118.842C65.5834 117.412 64.8567 116.069 63.9375 114.86C62.1472 112.886 59.9064 111.373 57.4052 110.448C52.0845 108.046 46.329 106.752 40.4906 106.646C39.8239 106.59 39.1557 106.735 38.5726 107.062C38.1994 107.368 37.9041 107.758 37.7109 108.2C36.0014 111.669 36.321 115.748 36.8492 119.577C37.0791 121.703 37.5452 123.797 38.239 125.821C39.0174 127.888 40.2404 129.761 40.9493 131.856C41.5525 133.873 41.9072 135.956 42.0056 138.058C42.089 140.542 42.214 143.025 42.2696 145.523Z" fill="#282328"/>
<path d="M75.0279 135.497C74.7574 137.154 74.6529 138.835 74.7161 140.514C74.7703 143.524 74.6752 146.535 74.4314 149.535C73.7128 163.823 71.5977 178.055 71.5841 192.356C71.5841 204.551 71.9773 217.301 71.9773 217.301C71.9773 217.301 61.5781 220.571 59.1783 218.118L55.1787 159.222C54.5686 154.773 53.633 150.256 53.3212 145.78C53.05 141.886 52.9687 138.587 51.545 134.846C49.9452 130.688 47.6674 126.767 46.4336 122.443C45.6353 119.674 45.2917 116.79 45.4167 113.906C45.3772 113.022 45.6147 112.148 46.0946 111.412C46.5685 110.911 47.1482 110.527 47.7894 110.289C54.9888 107.019 62.4594 103.693 70.3368 103.762C70.9724 103.708 71.6093 103.848 72.1672 104.164C72.6982 104.613 73.0816 105.218 73.2654 105.896C76.1629 113.713 77.0544 122.157 75.855 130.425C75.5432 132.213 75.272 133.848 75.0279 135.497Z" fill="#444444"/>
<path d="M114.529 35.4596C114.851 33.5843 114.809 31.6256 114.977 29.7225C114.984 28.9755 115.187 28.2432 115.564 27.5972C115.766 27.2814 116.07 27.044 116.427 26.9251C116.784 26.8062 117.171 26.813 117.523 26.9443C118.391 27.3749 118.419 28.5557 118.391 29.5141C118.363 30.4726 118.615 31.6951 119.566 31.8757C119.924 31.9103 120.285 31.8377 120.601 31.6673C121.076 31.4149 121.485 31.0563 121.796 30.6199C122.106 30.1835 122.311 29.6813 122.392 29.153C122.476 28.5279 122.392 27.875 122.504 27.2499C122.868 25.444 125.219 25.7496 126.31 26.6942C126.953 27.3109 127.475 28.0411 127.849 28.8474C128.64 30.2124 129.22 31.6873 129.57 33.2231C130.731 39.4881 123.12 40.8355 119.902 44.8362C119.439 45.4571 118.924 46.038 118.363 46.5726C117.817 47.0378 117.157 47.352 116.449 47.4837C115.742 47.6153 115.012 47.5598 114.333 47.3227C113.658 47.0756 113.061 46.6546 112.604 46.1029C112.147 45.5512 111.845 44.8887 111.731 44.1833C111.353 41.8496 113.06 39.752 113.899 37.5294C114.175 36.8608 114.386 36.1677 114.529 35.4596Z" fill="#D8D8D8"/>
<path d="M60.8249 19.1848C60.6959 19.3614 60.598 19.559 60.5352 19.769C60.4393 20.1948 60.4393 20.6368 60.5352 21.0626C61.0948 23.5776 61.4774 26.1293 61.6802 28.6987C61.7873 29.4182 61.6513 30.1531 61.2939 30.7851C60.7245 31.3963 59.9446 31.7646 59.1143 31.8144C57.9058 32.0094 56.6823 32.0932 55.4587 32.0648C54.9759 32.0648 54.3827 32.0648 54.0793 32.4681C53.9767 32.651 53.9199 32.8563 53.9137 33.0662C53.8568 34.0245 54.0419 34.9816 54.4517 35.8481C54.7027 36.2667 54.8274 36.7501 54.8104 37.239C54.7138 38.1292 53.4309 38.0457 52.7687 38.0875C50.2581 38.2127 47.7336 38.2266 45.223 38.0875C44.7892 38.1061 44.3577 38.0153 43.9676 37.8232C43.2917 37.4198 43.14 36.5157 42.9468 35.7507C42.0916 32.2039 39.374 29.4498 37.9117 26.1116C37.1588 24.3331 36.7626 22.4218 36.746 20.4881C36.7295 18.5544 37.0928 16.6365 37.8152 14.8451C38.5096 13.1384 39.4998 11.57 40.7397 10.2134C41.8708 8.94761 44.0504 8.68333 45.623 8.34951C48.382 7.76532 51.4444 7.59841 53.8999 9.0867C56.6589 10.7558 57.928 14.1775 60.7007 15.7771C61.1836 16.0552 61.7767 16.3334 61.9423 16.8759C61.9851 17.1514 61.961 17.4332 61.8721 17.6973C61.7832 17.9613 61.6322 18.1997 61.4319 18.392C61.2525 18.6702 61.018 18.9066 60.8249 19.1848Z" fill="#D8D8D8"/>
<path d="M53.2745 8.09878C53.2129 8.53061 53.0826 8.9495 52.8887 9.3392C52.0068 11.1929 50.8494 10.7329 49.2648 10.9699C47.3357 11.3183 46.0818 13.5064 45.6822 15.2904C45.3379 17.4533 45.4081 19.663 45.8888 21.7991C45.4645 21.4454 44.9412 21.235 44.3925 21.1975C43.8439 21.16 43.2974 21.2973 42.8298 21.5901C42.3746 21.9107 42.0206 22.3574 41.8104 22.8766C41.6002 23.3958 41.5427 23.9654 41.6449 24.5169C41.7588 25.0709 42.0227 25.5818 42.4072 25.9929C42.7916 26.4039 43.2814 26.6987 43.822 26.8444C44.3593 26.9838 44.9932 27.0117 45.3239 27.4577C45.5032 27.7795 45.5802 28.1493 45.5444 28.5169C45.5444 30.8862 45.4479 33.4646 43.9598 35.3043C41.8929 35.0953 40.322 33.4228 38.7788 32.0291C36.5879 30.05 34.08 28.4333 31.9718 26.3566C29.7369 24.373 28.349 21.5905 28.0999 18.5936C28.031 13.7852 32.2336 10.0779 33.7769 5.54826C34.0529 4.5283 34.4171 3.53492 34.8655 2.57962C35.2786 1.92368 35.8228 1.36242 36.4632 0.931929C37.1036 0.501436 37.8259 0.211241 38.5838 0.079978C39.3417 -0.0512849 40.1183 -0.0207079 40.8638 0.169755C41.6093 0.360218 42.3072 0.706348 42.9125 1.18589C44.0234 0.446735 45.3239 0.0528311 46.6536 0.0528311C47.9832 0.0528311 49.2838 0.446735 50.3946 1.18589C51.412 1.99906 52.2096 3.05927 52.7131 4.26791C53.2166 5.47656 53.4097 6.79437 53.2745 8.09878Z" fill="#444444"/>
<path d="M32.9254 60.6809C33.4999 65.131 33.6859 69.6222 33.4813 74.1041C33.3562 78.4819 33.1478 82.832 32.9671 87.2098C33.8148 90.9799 34.7597 94.75 35.7463 98.4786C36.3729 101.525 37.4057 104.474 38.8174 107.248C39.5294 108.582 40.4699 109.783 41.5966 110.797C42.7059 111.766 43.969 112.545 45.3347 113.103C48.5429 114.284 51.9715 114.755 55.3816 114.484C57.7862 114.39 60.1727 114.029 62.4965 113.407C65.4827 112.666 68.2556 111.248 70.5979 109.264C71.7741 108.219 72.8025 107.021 73.6551 105.701C75.6966 102.45 76.9303 98.7623 77.2542 94.9433C77.9523 88.6749 77.1377 82.3313 74.8779 76.438C74.7529 76.0928 74.6139 75.7613 74.4749 75.4161C73.5161 72.9855 72.5573 70.555 71.5706 68.1244C71.5706 68.1244 71.5706 68.0554 71.5706 68.0278C71.4178 67.6411 71.2649 67.2821 71.126 66.9092L71.0426 66.702L71.5846 66.923L72.1543 67.1301C72.3353 67.2024 72.521 67.2624 72.7101 67.3097C73.1131 67.4616 73.5439 67.5721 73.9469 67.6825L75.3365 68.0278C76.1286 68.1935 76.9346 68.3454 77.7405 68.4421L78.8384 68.5664C88.9409 69.4502 99.9605 65.3901 108.409 60.9019C111.167 59.5078 113.689 57.6954 115.886 55.5298C116.343 55.0466 116.775 54.5395 117.178 54.0107C118.189 52.6869 118.935 51.1818 119.373 49.5777C119.679 48.6066 119.679 47.5659 119.373 46.5948C119.353 46.5561 119.33 46.5191 119.304 46.4843C118.999 45.8199 118.576 45.2162 118.053 44.7029C116.77 43.3049 115.41 41.9772 113.982 40.7256L113.537 40.3389C113.154 40.0048 112.704 39.7553 112.217 39.607C111.737 39.5002 111.24 39.4993 110.759 39.6043C110.279 39.7092 109.828 39.9176 109.438 40.2146C108.728 40.7077 108.067 41.2672 107.464 41.8856C103.607 45.5408 99.0309 48.3647 94.0236 50.1803C89.0164 51.9958 83.6858 52.7639 78.3659 52.4364C75.4448 52.3142 72.5754 51.6295 69.917 50.4202C67.5846 49.1637 65.4187 47.6236 63.4692 45.8353C61.7075 44.4016 60.028 42.8709 58.4388 41.2504C58.0219 40.8085 57.5911 40.3527 57.2159 39.8694C56.8407 39.386 56.6045 39.1237 56.3126 38.7508L55.9514 38.2812C55.6346 37.8024 55.2175 37.3973 54.7285 37.0936C54.0279 36.7741 53.2615 36.6227 52.4912 36.6517C49.4757 36.5274 46.1963 35.9612 43.2225 36.0302H42.9029C42.6137 36.0412 42.3257 36.0735 42.0413 36.1269C41.0121 36.2877 40.049 36.7327 39.2621 37.4112C38.2944 38.3355 37.4109 39.3429 36.6218 40.4218C34.7719 42.4362 33.3199 44.7786 32.3418 47.3267C30.8966 51.5526 32.2584 56.1789 32.9254 60.6809Z" fill="white"/>
<path d="M32.9254 60.6809C33.4999 65.131 33.6859 69.6222 33.4813 74.1041C33.3562 78.4819 33.1478 82.832 32.9671 87.2098C33.8148 90.9799 34.7597 94.75 35.7463 98.4786C36.3729 101.525 37.4057 104.474 38.8174 107.248C39.5294 108.582 40.4699 109.783 41.5966 110.797C42.7059 111.766 43.969 112.545 45.3347 113.103C48.5429 114.284 51.9715 114.755 55.3816 114.484C57.7862 114.39 60.1727 114.029 62.4965 113.407C65.4827 112.666 68.2556 111.248 70.5979 109.264C71.7741 108.219 72.8025 107.021 73.6551 105.701C75.6966 102.45 76.9303 98.7623 77.2542 94.9433C77.9523 88.6749 77.1377 82.3313 74.8779 76.438C74.7529 76.0928 74.6139 75.7613 74.4749 75.4161C73.3779 73.0382 72.4084 70.6043 71.5706 68.1244C71.5706 68.1244 71.5706 68.0554 71.5706 68.0278C71.4595 67.6135 71.3622 67.2268 71.2649 66.8263C71.3672 66.8712 71.4745 66.9037 71.5846 66.923L72.1543 67.1301C72.3353 67.2024 72.521 67.2624 72.7101 67.3097C73.1131 67.4616 73.5439 67.5721 73.9469 67.6825L75.3365 68.0278C76.1286 68.1935 76.9346 68.3454 77.7405 68.4421L78.8384 68.5664C89.0798 69.6021 99.5853 65.6249 108.409 60.9019C111.167 59.5078 113.689 57.6954 115.886 55.5298C116.343 55.0466 116.775 54.5395 117.178 54.0107C118.189 52.6869 118.935 51.1818 119.373 49.5777C119.679 48.6066 119.679 47.5659 119.373 46.5948C119.353 46.5561 119.33 46.5191 119.304 46.4843C118.999 45.8199 118.576 45.2162 118.053 44.7029C116.77 43.3049 115.41 41.9772 113.982 40.7256L113.537 40.3389C113.154 40.0048 112.704 39.7553 112.217 39.607C111.737 39.5002 111.24 39.4993 110.759 39.6043C110.279 39.7092 109.828 39.9176 109.438 40.2146C108.728 40.7077 108.067 41.2672 107.464 41.8856C103.607 45.5408 99.0309 48.3647 94.0236 50.1803C89.0164 51.9958 83.6858 52.7639 78.3659 52.4364C75.4448 52.3142 72.5754 51.6295 69.917 50.4202C67.5846 49.1637 65.4187 47.6236 63.4692 45.8353C61.7075 44.4016 60.028 42.8709 58.4388 41.2504C58.0219 40.8085 57.5911 40.3527 57.2159 39.8694C56.8407 39.386 56.6045 39.1237 56.3126 38.7508L55.9514 38.2812C55.6346 37.8024 55.2175 37.3973 54.7285 37.0936C54.0279 36.7741 53.2615 36.6227 52.4912 36.6517C49.4757 36.5274 46.1963 35.9612 43.2225 36.0302H42.9029C42.6137 36.0412 42.3257 36.0735 42.0413 36.1269C41.0321 36.3497 40.0838 36.7879 39.2621 37.4112C38.2944 38.3355 37.4109 39.3429 36.6218 40.4218C34.7719 42.4362 33.3199 44.7786 32.3418 47.3267C30.8966 51.5526 32.2584 56.1789 32.9254 60.6809Z" fill="#EFEFEF"/>
<path d="M80.3656 224.275C81.667 224.854 82.7411 225.834 83.4259 227.065C83.5687 227.338 83.6121 227.651 83.5488 227.951C83.4503 228.173 83.3022 228.37 83.1153 228.528C82.9285 228.686 82.7077 228.801 82.4695 228.863C79.0267 230.205 75.133 229.963 71.4716 229.319C67.8607 228.451 64.1732 227.925 60.46 227.75C60.1481 227.798 59.8293 227.78 59.5252 227.697C59.2211 227.613 58.9388 227.467 58.6976 227.267C58.4688 226.93 58.3585 226.53 58.3834 226.126C58.2342 222.96 58.7938 219.8 60.0228 216.869C59.9408 217.057 69.7638 217.433 70.5972 218.01C72.1684 219.069 73.4662 220.424 75.133 221.404C76.7998 222.383 78.6305 223.255 80.3656 224.275Z" fill="#282328"/>
</svg>
