<svg width="165" height="239" viewBox="0 0 165 239" fill="none" xmlns="http://www.w3.org/2000/svg">
<ellipse cx="98.4037" cy="230.565" rx="63.4037" ry="7.56522" fill="#C4C4C4" fill-opacity="0.27"/>
<path opacity="0.1" d="M139.943 72.0289C139.943 72.0289 148.92 69.1535 149.838 72.0289H139.943Z" fill="black"/>
<path d="M61.1445 82.8289C61.1445 82.8289 63.1735 72.185 69.7053 72.1309L74.4765 81.9528L71.2947 84.1472C71.2947 84.1472 64.3805 84.3668 61.1445 82.8289Z" fill="#D0CDE1"/>
<path opacity="0.502" d="M74.4765 81.9495L71.2947 84.1466C71.2947 84.1466 66.4436 84.3007 62.9509 83.4447C62.3298 83.2996 61.7247 83.0931 61.1445 82.8283C61.1489 82.7698 61.1614 82.7122 61.1816 82.6572C61.1808 82.6438 61.1808 82.6304 61.1816 82.6171C61.4816 81.2812 61.8949 79.9733 62.4171 78.7076C62.617 78.2309 62.8452 77.7375 63.0906 77.2465C64.0466 75.4061 65.3907 73.6024 67.2284 72.7093C67.9086 72.375 68.6491 72.1809 69.4058 72.1387H69.6969L69.7995 72.3556L71.4153 75.6742L74.4765 81.9495Z" fill="black"/>
<path d="M128.686 126.177C128.686 126.177 135.535 125.519 136.148 126.012C136.762 126.505 140.648 129.031 142.951 127.438C145.254 125.846 143.719 120.305 143.719 120.085C143.719 119.865 143.502 112.021 143.502 112.021L139.384 106.479L134.228 96.7769L123.692 95.7354L123.978 111.145L123.924 119.046L128.686 126.177Z" fill="#D0CDE1"/>
<path opacity="0.503" d="M128.686 126.177C128.686 126.177 135.535 125.519 136.148 126.012C136.762 126.505 140.648 129.031 142.951 127.438C145.254 125.846 143.719 120.305 143.719 120.085C143.719 119.865 143.502 112.021 143.502 112.021L139.384 106.479L134.228 96.7769L123.692 95.7354L123.978 111.145L123.924 119.046L128.686 126.177Z" fill="black"/>
<path d="M68.3314 71.8565C68.3314 71.8565 67.7863 78.551 63.6143 78.6594C63.6143 78.6594 62.4331 77.946 60.8436 76.7588C57.1798 74.0165 51.364 68.7459 52.9708 63.8436C55.2765 56.8211 66.4682 69.7704 66.4682 69.7704L67.3243 70.7347L68.3314 71.8565Z" fill="#D1D1D1"/>
<path opacity="0.1" d="M68.3298 71.8567C68.3298 71.8567 67.7846 78.5513 63.6127 78.6596C63.6127 78.6596 62.4314 77.9462 60.842 76.759L60.4854 76.3024C61.1923 76.6715 61.9716 76.8809 62.7683 76.9158C63.8156 76.9385 64.9942 76.5504 65.7503 75.0382C66.184 74.1765 66.5652 73.2893 66.8918 72.3815C67.0917 71.8499 67.2333 71.2981 67.314 70.7358L68.3298 71.8567Z" fill="black"/>
<path d="M66.5186 83.981L65.5796 82.7739L62.4122 78.7076L60.8027 76.6302C61.5091 77.0012 62.2886 77.2116 63.0857 77.2466C64.133 77.2693 65.3116 76.8813 66.0707 75.366C66.5047 74.5044 66.8859 73.6172 67.2122 72.7093C67.7343 71.2282 67.7229 70.4652 67.5413 70.2097C67.3597 69.9542 68.7055 71.2055 69.3533 71.8192L69.3761 71.8419C69.5616 72.0131 69.6812 72.1274 69.6812 72.1274L69.7926 72.35L71.382 75.5288L71.399 75.6629C71.5439 76.673 72.0803 83.0734 66.5186 83.981Z" fill="#E6E6E6"/>
<path d="M99.3876 225.217C99.3876 225.217 94.7797 228.236 92.4758 227.785C90.1718 227.334 87.8102 228.555 87.8102 228.555C86.2226 230.29 84.2205 231.593 81.9917 232.342C78.262 233.603 73.0515 233.11 70.0893 232.119C68.6854 231.654 68.5741 231.05 69.2476 230.307C69.9981 229.477 71.7188 228.475 73.7107 227.291C77.4945 225.043 81.5551 220.597 81.5551 220.597C81.5551 220.597 81.6093 219.501 82.2685 219.007C82.6723 218.662 83.0429 218.28 83.3755 217.866C83.9635 217.169 84.517 216.439 84.517 216.439L98.0713 216.879C98.0713 216.879 98.3026 217.857 98.4822 218.856C98.6333 219.675 98.7514 220.508 98.6733 220.831C98.5079 221.541 99.0584 222.201 99.0584 222.201L99.3011 224.44L99.3876 225.217Z" fill="#444444"/>
<path d="M127.759 228.999C127.597 229.655 127.4 230.834 127.311 231.387C127.281 231.575 127.265 231.69 127.265 231.69C127.265 231.69 126.166 234.104 120.077 234.983C113.988 235.862 113.987 232.951 113.987 232.951C113.987 232.951 114.01 232.637 114.05 232.166C114.156 230.882 114.375 228.426 114.535 227.903C114.755 227.19 114.372 224.062 114.372 224.062L114.307 220.792L114.261 218.509L124.359 217.465C124.423 218.22 124.532 218.971 124.684 219.713C124.747 220.121 124.898 220.511 125.126 220.855C125.674 221.463 126.005 224.148 126.005 224.148C126.005 224.148 127.973 228.12 127.759 228.999Z" fill="#444444"/>
<path opacity="0.1" d="M98.081 216.875C98.081 216.875 98.312 217.854 98.4918 218.852C97.028 219.122 90.6273 220.231 89.0265 219.454C87.2175 218.576 83.3193 218.082 83.3193 218.082L83.3849 217.859C83.9728 217.163 84.5264 216.433 84.5264 216.433L98.081 216.875Z" fill="black"/>
<path opacity="0.1" d="M124.677 219.725C122.109 219.291 116.51 220.341 114.302 220.792L114.256 218.509L124.352 217.465C124.416 218.224 124.524 218.979 124.677 219.725Z" fill="black"/>
<path d="M130.391 136.547L130.172 144.283C130.172 144.283 130.457 156.08 129.624 157.946C128.79 159.812 128.799 167.328 128.799 167.328C128.799 167.328 129.35 170.895 128.745 171.66C128.14 172.425 128.58 175.284 129.03 176.765C129.481 178.246 129.082 181.925 129.082 181.925L128.974 202.664C128.974 202.664 128.372 208.04 127.601 208.811C127.38 209.038 127.223 209.321 127.146 209.629C127.069 209.937 127.076 210.26 127.165 210.565C127.165 210.565 126.506 213.636 126.671 214.186C126.835 214.736 127.165 215.995 125.903 216.597C124.642 217.2 124.967 219.123 124.967 219.123C121.951 218.409 113.393 220.333 113.393 220.333C113.393 220.333 111.681 216.82 110.976 214.46C110.271 212.1 112.021 210.619 113.171 210.465C114.321 210.311 112.349 208.268 112.349 208.268C112.349 208.268 112.568 207.982 112.02 206.019C111.471 204.056 112.128 198.993 112.305 197.678C112.482 196.363 113.292 189.996 113.292 189.996C113.292 189.996 112.856 181.932 113.184 181.601C113.512 181.271 114.611 178.089 114.063 177.036C113.515 175.983 112.636 169.134 112.636 168.76C112.636 168.387 111.923 159.486 111.923 159.486C111.923 159.486 111.267 153.285 111.429 151.97C111.592 150.655 110.99 145.772 110.99 145.772C110.99 141.709 108.633 137.32 108.633 137.32L108.573 137.477L103.474 150.889C103.474 150.889 102.652 154.947 101.936 157.252C101.487 158.817 101.129 160.408 100.866 162.015L100.817 162.3C100.797 162.423 100.78 162.528 100.769 162.608L100.735 162.831C100.735 162.831 101.117 165.739 100.515 166.672C99.9132 167.605 99.2286 170.402 99.2286 171.18C99.2286 171.959 99.2801 174.916 99.2801 174.916C99.2801 174.916 99.5027 180.786 98.8977 181.445C98.2927 182.104 98.6122 182.652 98.6122 182.652C98.6122 182.652 99.6023 187.095 99.1631 188.247C98.7238 189.4 99.0548 192.085 99.0548 192.085C99.0548 192.085 98.1844 200.572 98.0874 201.017C97.9905 201.462 97.3741 204.858 98.0303 205.131C98.6864 205.405 99.9506 207.052 99.9506 207.052C99.9506 207.052 100.236 214.24 99.24 214.788C98.2439 215.336 98.7977 218.135 98.7977 218.135C98.7977 218.135 90.845 219.673 89.033 218.794C87.2209 217.914 83.3258 217.421 83.3258 217.421L83.8709 215.618C83.841 215.681 83.4772 216.265 83.2175 214.02C82.932 211.66 85.2491 212.813 85.2491 212.813C85.2491 212.813 87.0581 213.252 84.1477 210.399C81.2373 207.545 82.6666 204.637 82.8312 204.637C82.9958 204.637 83.379 200.414 83.379 200.414C83.379 200.414 83.8727 197.888 83.4874 195.914C83.102 193.939 82.7767 187.792 82.7767 187.792C82.7767 187.792 83.0622 183.13 82.5571 181.429C82.052 179.728 82.8862 176.655 83.0508 175.939C83.2154 175.223 82.5571 168.698 82.5571 168.698C82.5571 168.698 83.108 165.627 82.7767 163.379C82.4455 161.13 83.1076 152.844 83.1076 152.844L84.0951 143.295C84.0951 143.295 84.8057 140.333 84.6971 139.126C84.5884 137.92 85.519 133.705 85.519 133.705C85.519 133.705 85.4107 132.167 85.9585 131.072C86.5064 129.977 86.729 126.355 86.729 126.355L91.9966 114.281L94.5648 103.637L129.407 103.308C129.407 103.308 129.535 104.23 129.743 105.908C129.952 107.586 130.254 110.071 130.599 113.136C130.902 115.921 131.233 119.197 131.557 122.838C132.586 134.461 130.391 136.547 130.391 136.547Z" fill="#444444"/>
<path d="M127.152 40.4708L119.028 49.1429C119.028 49.1429 108.606 44.971 109.702 43.5443C110.127 42.9908 110.059 41.2613 109.813 39.3254C109.428 36.2893 108.606 32.7879 108.606 32.7879C108.606 32.7879 126.821 29.8257 125.283 32.8963C124.712 34.0207 124.82 35.3304 125.169 36.5404C125.614 37.9485 126.283 39.2753 127.152 40.4696V40.4708Z" fill="#D1D1D1"/>
<path opacity="0.1" d="M125.283 32.8977C124.712 34.0222 124.455 34.1305 124.806 35.3405C122.423 37.9086 119.384 40.691 115.629 40.691C113.611 40.6941 111.62 40.2271 109.813 39.3269C109.428 36.2908 108.606 32.7894 108.606 32.7894C108.606 32.7894 126.821 29.8272 125.283 32.8977Z" fill="black"/>
<path d="M128.688 27.3013C128.688 30.7652 127.312 34.0872 124.862 36.5365C122.413 38.9859 119.091 40.3619 115.627 40.3619C112.163 40.3619 108.841 38.9859 106.392 36.5365C103.942 34.0872 102.566 30.7652 102.566 27.3013C102.566 27.2384 102.566 27.1756 102.566 27.1131C102.591 23.6499 103.991 20.3385 106.458 17.9073C108.924 15.4761 112.255 14.1243 115.718 14.1493C119.182 14.1742 122.493 15.5739 124.924 18.0404C127.355 20.5069 128.707 23.8381 128.682 27.3013H128.688Z" fill="#D1D1D1"/>
<path opacity="0.1" d="M130.58 113.453C128.851 113.467 123.09 113.516 116.652 113.619H116.575L114.447 113.654H114.381C106.748 113.777 99.2259 112.285 96.2069 112.57C89.7864 113.172 98.5108 106.643 98.5108 106.643C103.295 107.805 108.216 108.302 113.135 108.121L114.982 108.027C120.816 107.696 126.681 107.148 129.74 106.229C129.952 107.923 130.249 110.4 130.58 113.453Z" fill="black"/>
<path d="M130.581 113.125C128.852 113.125 123.091 113.188 116.653 113.288H116.576L114.447 113.325H114.381C106.748 113.447 99.2259 111.955 96.2069 112.237C89.7864 112.839 98.5108 106.313 98.5108 106.313C103.295 107.473 108.216 107.97 113.135 107.791L114.982 107.694C120.816 107.365 126.681 106.815 129.74 105.896C129.954 107.592 130.25 110.06 130.581 113.125Z" fill="black"/>
<path opacity="0.1" d="M112.118 44.092L102.022 48.8118L94.2324 109.056C94.2324 109.056 98.8403 106.973 101.473 108.289C104.106 109.604 112.226 108.4 112.226 108.4C112.226 108.4 118.152 108.069 119.031 108.729C119.91 109.389 130.222 105.987 130.222 105.987C130.222 105.987 132.088 101.815 130.661 101.159C129.235 100.502 131.101 94.0248 131.101 94.0248L130.222 50.5678L128.467 44.9726L123.75 42.1172L118.916 45.9582L116.633 46.2873L112.118 44.092Z" fill="black"/>
<path d="M112.118 43.4324L102.022 48.1522L94.2324 108.402C94.2324 108.402 98.8403 106.316 101.473 107.634C104.106 108.953 112.226 107.743 112.226 107.743C112.226 107.743 118.152 107.413 119.031 108.072C119.91 108.73 130.222 105.329 130.222 105.329C130.222 105.329 132.088 101.161 130.661 100.501C129.235 99.8422 131.101 93.3676 131.101 93.3676L130.222 49.9049L128.467 44.3097L123.75 41.4546L118.916 45.2983L116.633 45.6235L112.118 43.4324Z" fill="#E6E6E6"/>
<path opacity="0.1" d="M111.952 46.2323C111.952 46.2323 114.86 49.6879 114.805 50.4012C114.751 51.1145 114.643 52.8153 114.643 52.8153L112.445 57.2613C112.445 57.2613 111.238 62.803 111.238 63.9558C111.238 65.1087 109.318 75.0847 109.318 75.0847L107.014 90.4484L104.106 110.585L107.069 115.688L110.581 112.725L115.244 76.839L116.231 69.762C116.231 69.762 117.273 57.0324 117.273 55.7167C117.273 54.4011 116.671 50.9428 116.671 50.9428C116.671 50.9428 117.384 47.6497 120.346 46.8822C123.309 46.1147 120.127 46.7167 120.127 46.7167L118.415 45.3442L116.934 45.9492C116.934 45.9492 112.831 44.697 111.952 46.2323Z" fill="black"/>
<path d="M111.625 45.9094C111.625 45.9094 114.533 49.365 114.479 50.0783C114.424 50.7916 114.313 52.4923 114.313 52.4923L112.119 56.9383C112.119 56.9383 110.926 62.4738 110.926 63.6242C110.926 64.7747 109.006 74.7531 109.006 74.7531L106.686 90.1395L103.792 110.263L106.757 115.368L110.253 112.398L114.92 76.5197L115.908 69.4427C115.908 69.4427 116.949 56.713 116.949 55.3947C116.949 54.0764 116.347 50.6208 116.347 50.6208C116.347 50.6208 117.061 47.3294 120.023 46.5602C122.985 45.7909 119.803 46.3974 119.803 46.3974L118.091 45.0249L116.633 45.6233C116.633 45.6233 112.504 44.3666 111.625 45.9094Z" fill="#444444"/>
<path opacity="0.1" d="M109.702 40.1431C109.702 40.1431 109.263 40.4722 109.154 42.6657C109.046 44.8592 107.509 49.7995 107.509 49.7995C107.509 49.7995 113.216 45.8472 116.07 46.2868L109.702 40.1431Z" fill="black"/>
<path d="M109.702 39.4829C109.702 39.4829 109.263 39.812 109.154 42.0083C109.046 44.2045 107.509 49.1421 107.509 49.1421C107.509 49.1421 113.216 45.1925 116.07 45.6323L109.702 39.4829Z" fill="#E6E6E6"/>
<path opacity="0.1" d="M125.289 38.3848L116.289 46.2864C116.289 46.2864 123.862 50.7865 124.85 51.8849C125.837 52.9833 126.824 41.1285 126.824 41.1285L125.289 38.3848Z" fill="black"/>
<path d="M125.614 37.728L116.631 45.6239C116.631 45.6239 124.201 50.1211 125.192 51.2192C126.182 52.3173 127.169 40.464 127.169 40.464L125.614 37.728Z" fill="#E6E6E6"/>
<path opacity="0.1" d="M110.031 40.1426C110.031 40.1426 109.044 39.6489 108.111 41.0759C107.178 42.5028 105.423 43.159 105.423 43.159C105.423 43.159 95.4356 44.7514 95.0532 46.0667L90.3906 46.3522C90.3906 46.3522 88.7449 46.5691 88.5785 50.0277C88.4122 53.4863 87.5256 53.8059 87.5256 53.8059C87.5256 53.8059 85.6053 57.2073 85.7677 58.9622C85.9302 60.7171 84.2866 61.5952 84.2866 61.5952L91.1353 79.4283C91.1353 79.4283 91.3549 86.782 90.0911 89.4698C88.8272 92.1577 86.4706 104.066 86.4706 104.066C86.4706 104.066 87.4607 103.846 87.4038 104.502C87.347 105.158 86.1968 112.35 86.1968 112.35C86.1968 112.35 85.8677 115.203 85.3207 116.191C84.7738 117.178 84.7157 122.337 84.7157 122.337L83.8369 126.067C83.8369 126.067 85.9227 130.733 89.1046 130.062C92.2864 129.392 98.0848 116.964 98.0848 116.964L101.76 103.521L104.614 90.2439L105.436 81.2466L106.754 61.3286L108.675 48.1594C108.675 48.1594 110.802 41.0771 110.031 40.1426Z" fill="black"/>
<path d="M109.702 39.483C109.702 39.483 108.715 38.9893 107.782 40.4162C106.849 41.8432 105.094 42.502 105.094 42.502C105.094 42.502 95.1064 44.0914 94.724 45.4098L90.0584 45.6952C90.0584 45.6952 88.4127 45.9148 88.2494 49.3707C88.086 52.8266 87.2051 53.1573 87.2051 53.1573C87.2051 53.1573 85.2848 56.5587 85.4502 58.3136C85.6157 60.0685 83.9691 60.9466 83.9691 60.9466L90.8178 78.7797C90.8178 78.7797 91.0374 86.1334 89.7762 88.8212C88.5151 91.5091 86.1558 103.417 86.1558 103.417C86.1558 103.417 87.1432 103.197 87.089 103.857C87.0349 104.516 85.882 111.701 85.882 111.701C85.882 111.701 85.5529 114.555 85.0032 115.542C84.4536 116.529 84.4012 121.689 84.4012 121.689L83.5293 125.407C83.5293 125.407 85.6151 130.072 88.7969 129.402C91.9787 128.731 97.7401 116.29 97.7401 116.29L101.418 102.847L104.272 89.566L105.097 80.5687L106.413 60.6507L108.333 47.4815C108.333 47.4815 110.47 40.4159 109.702 39.483Z" fill="#444444"/>
<path opacity="0.1" d="M74.4758 81.9502L71.294 84.1486C71.294 84.1486 66.4428 84.3026 62.9501 83.4466L61.1809 82.6591L60.8242 82.505L61.1896 82.619C63.0243 83.1641 64.4596 83.1525 65.5811 82.7761C70.0839 81.2609 69.5762 73.8245 69.4134 72.1409C69.3963 71.9724 69.3835 71.8554 69.3763 71.8213C69.3756 71.8147 69.3756 71.8079 69.3763 71.8013L69.402 71.8441C69.4634 71.9452 69.5334 72.0407 69.6115 72.1295C69.6743 72.2007 69.7398 72.2749 69.8114 72.3434L71.4008 75.5223L71.4178 75.6563L74.4758 81.9502Z" fill="black"/>
<path d="M85.5055 60.4971L83.9702 60.9366L83.7506 64.0756C83.7506 64.0756 81.9386 63.7902 81.4449 65.9418C80.9512 68.0935 80.0751 69.0809 80.0751 69.0809C80.0751 69.0809 77.056 71.6062 76.8906 73.7435L75.0271 74.885C75.0271 74.885 70.6885 73.8748 69.7053 72.1322C69.7053 72.1322 71.6801 86.2889 61.1445 82.8303C61.1445 82.8303 72.9413 87.9896 73.4891 88.7029C74.037 89.4162 77.661 91.4993 80.9512 89.7445C84.2413 87.9896 84.9576 85.2901 84.9576 85.2901C84.9576 85.2901 88.1395 80.8444 88.2508 80.1849C88.3621 79.5255 90.8189 78.7583 90.8189 78.7583L95.539 67.343L85.5055 60.4971Z" fill="#444444"/>
<path opacity="0.1" d="M124.026 44.9709L125.615 37.73C125.615 37.73 126.329 40.0899 127.042 40.6377L129.402 42.4468C129.402 42.4468 131.762 43.5455 132.584 43.5455C133.406 43.5455 137.852 44.687 138.4 45.3003C138.947 45.9137 141.145 45.4658 141.145 45.4658C141.145 45.4658 142.954 46.0678 144.546 46.4532C146.139 46.8386 146.906 49.4723 146.575 50.5138C146.443 51.0324 146.444 51.5762 146.579 52.0943C146.713 52.6123 146.977 53.0877 147.346 53.476C148.002 54.1343 148.333 56.2754 148.333 56.2754C149.14 56.5382 149.81 57.1096 150.197 57.8649C150.748 59.0719 150.582 61.7058 150.582 61.7058L142.407 73.2285C142.407 73.2285 142.515 77.6745 142.187 78.6502C141.859 79.626 143.329 96.4279 143.329 96.4279L145.041 125.289C145.041 125.289 142.792 127.209 142.298 127.429C141.805 127.649 141.308 117.222 141.308 116.84C141.308 116.457 128.636 97.8548 128.636 97.8548C128.636 97.8548 126.924 95.1099 126.924 94.5076C126.924 93.9053 125.331 88.3609 125.331 88.3609L122.916 77.6613L124.026 44.9709Z" fill="black"/>
<path d="M151.26 61.0757C151.26 61.4524 151.24 61.7041 151.24 61.7041L143.072 73.2181C143.072 73.2181 143.186 77.6611 142.855 78.6398C142.664 79.2104 143.083 85.1174 143.471 89.9656C143.757 93.4663 144.008 96.4175 144.008 96.4175L144.73 108.659L145.706 125.278C145.706 125.278 143.457 127.199 142.963 127.419C142.47 127.638 141.976 117.211 141.976 116.826C141.976 116.442 129.301 97.8444 129.301 97.8444C129.301 97.8444 127.588 95.0994 127.588 94.4971C127.588 93.8948 125.999 88.3504 125.999 88.3504L123.585 77.6497L124.681 44.9509L125.614 37.71C125.614 37.71 126.986 40.0698 127.7 40.615C128.413 41.1602 130.057 42.427 130.057 42.427C130.057 42.427 132.417 43.5257 133.241 43.5257C134.066 43.5257 138.509 44.6672 139.057 45.2806C139.605 45.894 141.802 45.4461 141.802 45.4461C141.802 45.4461 143.611 46.0481 145.201 46.4335C146.79 46.8189 147.561 49.4525 147.232 50.4911C147.099 51.0099 147.099 51.554 147.233 52.0726C147.368 52.5911 147.631 53.0671 148 53.456C148.658 54.1143 148.987 56.2524 148.987 56.2524C149.795 56.517 150.466 57.0904 150.853 57.8475C151.237 58.6988 151.274 60.2206 151.26 61.0757Z" fill="#444444"/>
<path opacity="0.1" d="M84.1895 207.273C84.4749 207.273 95.9862 207.712 95.7663 209.579C95.5463 211.445 84.1895 207.273 84.1895 207.273Z" fill="black"/>
<path opacity="0.1" d="M86.7705 210.4C86.7705 210.4 94.5066 211.661 92.4777 212.814C90.4487 213.967 86.7705 210.4 86.7705 210.4Z" fill="black"/>
<path opacity="0.1" d="M115.52 206.065C115.52 206.065 128.361 207.164 126.441 208.588C124.521 210.012 119.966 210.233 119.746 210.3C119.526 210.366 115.52 206.065 115.52 206.065Z" fill="black"/>
<path opacity="0.1" d="M113.983 211.718C113.983 211.718 121.117 212.925 121.334 214.286C121.551 215.648 113.983 211.718 113.983 211.718Z" fill="black"/>
<path opacity="0.1" d="M117.932 178.686C117.932 178.686 124.46 180.221 124.846 181.254L117.932 178.686Z" fill="black"/>
<path opacity="0.1" d="M92.7465 183.406C92.7465 183.406 89.3451 184.393 92.6382 186.368C95.9313 188.343 92.7465 183.406 92.7465 183.406Z" fill="black"/>
<path opacity="0.1" d="M107.837 130.675C108.222 130.675 114.203 128.7 116.286 129.579C118.369 130.459 120.952 130.456 120.952 130.456L107.837 130.675Z" fill="black"/>
<path opacity="0.1" d="M108.609 136.939L108.549 137.481L103.45 150.892C103.45 150.892 102.628 154.95 101.912 157.256C101.462 158.821 101.105 160.411 100.842 162.018L105.371 133.937L108.609 136.939Z" fill="black"/>
<path d="M116.576 113.288L114.447 113.325H114.382L113.135 107.795C113.748 107.765 114.362 107.732 114.981 107.695L116.576 113.288Z" fill="#444444"/>
<path d="M142.46 106.591L141.093 107.716L136.528 111.468C136.528 111.468 124.181 118.054 120.78 111.799C117.781 106.289 131.78 102.354 135.15 101.495C135.609 101.378 135.868 101.321 135.868 101.321L142.46 106.591Z" fill="#D1D1D1"/>
<path opacity="0.1" d="M89.7285 52.6523C89.7285 52.6523 92.1426 53.7481 92.6907 55.2854C93.2389 56.8228 89.7285 52.6523 89.7285 52.6523Z" fill="black"/>
<path opacity="0.1" d="M82.2706 69.1113C82.2706 69.1113 78.7578 73.3916 80.1848 75.0381C81.6117 76.6847 82.2706 69.1113 82.2706 69.1113Z" fill="black"/>
<path opacity="0.1" d="M145.04 55.0664C145.04 55.0664 141.747 55.3955 141.639 58.2482L145.04 55.0664Z" fill="black"/>
<path opacity="0.1" d="M114.532 100.058C114.861 99.7292 122.434 88.5357 124.189 89.5231L114.532 100.058Z" fill="black"/>
<path opacity="0.1" d="M128.689 27.3017C128.692 29.4523 128.161 31.57 127.145 33.4655L127.048 33.4484C126.221 33.2743 125.79 32.3069 125.156 31.7076C124.768 31.3375 124.273 31.0983 123.742 31.0236C123.211 30.9489 122.67 31.0424 122.194 31.2911C121.714 31.579 121.323 31.995 121.066 32.4925C120.809 32.99 120.696 33.5493 120.739 34.1076C120.322 32.3497 120.453 30.4809 120.045 28.72C119.637 26.9591 118.407 25.1788 116.727 25.1474C116.002 25.1474 115.154 25.4167 114.632 24.8619C114.315 24.5328 114.25 24.0059 114.013 23.6205C112.811 21.6756 109.162 22.6588 107.661 23.6546C106.217 24.6121 104.429 26.2458 102.574 27.1018C102.599 23.6387 103.999 20.3273 106.465 17.8961C107.687 16.6923 109.133 15.7408 110.722 15.096C112.311 14.4512 114.011 14.1257 115.726 14.138C117.441 14.1504 119.137 14.5004 120.716 15.168C122.296 15.8357 123.728 16.8079 124.932 18.0292C126.136 19.2504 127.087 20.6969 127.732 22.2858C128.377 23.8748 128.702 25.5753 128.69 27.2901L128.689 27.3017Z" fill="black"/>
<path d="M114.013 23.3008C114.252 23.6975 114.316 24.2166 114.632 24.5422C115.155 25.0844 116.002 24.8076 116.727 24.8276C118.408 24.8575 119.638 26.6397 120.046 28.4002C120.453 30.1608 120.331 32.027 120.739 33.786C120.696 33.228 120.81 32.6691 121.067 32.1722C121.325 31.6753 121.716 31.2602 122.197 30.9734C122.672 30.7251 123.212 30.6315 123.743 30.7057C124.273 30.7799 124.768 31.0182 125.156 31.3873C125.789 31.9893 126.22 32.9539 127.048 33.1281C127.876 33.3022 128.674 32.5087 128.971 31.6356C129.268 30.7625 129.257 29.8065 129.445 28.902C129.819 27.1899 130.934 25.7902 131.554 24.1622C132.289 22.1815 132.268 19.9995 131.497 18.0328C131.086 17.0026 130.472 16.0754 130.07 15.0452C129.437 13.4815 125.924 11.3757 125.156 9.88588C123.863 7.39194 124.697 8.94695 122.197 9.88588C121.004 10.3347 119.44 8.7387 118.23 9.13545C116.607 9.65488 114.875 9.26381 113.194 9.02983C111.513 8.79585 109.661 8.77311 108.311 9.88588C106.759 11.1557 106.334 13.544 104.887 14.9396C104.274 15.5245 103.511 15.897 102.864 16.4404C102.217 16.9838 101.66 17.7869 101.722 18.6689C101.819 19.8104 102.932 20.8376 102.521 21.8906C102.373 22.1948 102.166 22.4671 101.914 22.6925C100.69 23.9729 99.7802 25.5202 99.2568 27.2123C102.193 28.1282 105.372 24.8923 107.669 23.363C109.157 22.3418 112.812 21.3687 114.013 23.3008Z" fill="#444444"/>
<path opacity="0.1" d="M142.46 106.592L141.093 107.716C139.888 105.719 134.943 101.704 134.943 101.704L135.157 101.498C135.617 101.381 135.875 101.324 135.875 101.324L142.46 106.592Z" fill="black"/>
<path d="M143.778 104.559C143.778 104.559 143.287 105.78 142.779 106.842C142.271 107.904 141.721 108.857 141.692 108.078C141.638 106.54 135.274 101.38 135.274 101.38L136.13 100.543L137.132 99.5723L143.778 104.559Z" fill="#E6E6E6"/>
<path opacity="0.1" d="M143.999 96.4378L144.721 108.679C143.009 106.028 138.338 99.2342 135.326 99.4538L142.627 91.0615C142.93 90.7223 143.21 90.3624 143.463 89.9844C143.742 93.4873 143.999 96.4378 143.999 96.4378Z" fill="black"/>
<path opacity="0.1" d="M143.779 104.559C143.779 104.559 143.288 105.781 142.78 106.842C140.868 104.22 138.237 101.121 136.138 100.542L137.139 99.5713L143.779 104.559Z" fill="black"/>
<path d="M149.263 60.1768L151.238 61.712C151.238 61.712 154.529 61.7692 154.859 64.5114C155.188 67.2537 158.206 68.5065 158.206 68.5065C158.206 68.5065 160.454 70.7551 160.454 71.7979C160.454 72.8406 162.167 74.7086 162.167 74.8711C162.167 75.0335 163.812 78.3838 163.593 78.9858C163.374 79.5878 165.348 82.2245 164.735 83.2119C164.238 84.0974 163.798 85.0133 163.416 85.9542C163.416 85.9542 160.848 90.8936 159.521 91.8268C158.194 92.7601 152.17 100.605 152.17 100.605C152.17 100.605 145.696 108.067 145.696 110.372C145.696 110.372 139.382 99.837 135.654 100.099L142.951 91.7041C142.951 91.7041 144.215 90.3343 144.269 89.5097C144.323 88.6851 147.779 84.9019 149.426 84.7358C149.426 84.7358 149.711 82.4872 148.986 82.4319C148.261 82.3765 147.669 80.6198 147.669 80.6198C147.669 80.6198 142.841 74.9127 142.787 71.2916C142.732 67.6705 149.263 60.1768 149.263 60.1768Z" fill="#444444"/>
<path opacity="0.1" d="M152.173 65.3823C152.173 65.3823 147.562 68.7838 148.553 69.8795C149.544 70.9752 152.173 65.3823 152.173 65.3823Z" fill="black"/>
<path opacity="0.1" d="M99.3876 225.215C99.3876 225.215 94.7797 228.234 92.4758 227.783C90.1718 227.332 87.8102 228.554 87.8102 228.554C86.2226 230.288 84.2205 231.591 81.9917 232.341C78.262 233.602 73.0515 233.108 70.0893 232.118C68.6854 231.653 68.5741 231.048 69.2476 230.306C72.4693 230.948 79.6689 232.224 81.6093 231.296C84.1319 230.089 87.753 227.455 87.753 227.455C87.753 227.455 92.4758 226.797 93.1319 226.797C93.5999 226.797 97.244 225.293 99.3014 224.428L99.3876 225.215Z" fill="black"/>
<path opacity="0.1" d="M92.0092 64.7231C92.0092 64.7231 92.0092 77.2332 90.9392 78.4686C89.8693 79.7041 92.0092 64.7231 92.0092 64.7231Z" fill="black"/>
<path opacity="0.1" d="M141.473 68.7549L143.062 73.2251C143.062 73.2251 143.696 68.8378 141.473 68.7549Z" fill="black"/>
<g opacity="0.1">
<path opacity="0.1" d="M102.675 20.7982C103.077 19.768 102.024 18.7609 101.887 17.6592C101.747 17.9705 101.686 18.3117 101.71 18.6523C101.781 19.4826 102.395 20.2617 102.566 21.0292C102.61 20.9559 102.646 20.8784 102.675 20.7979V20.7982Z" fill="black"/>
<path opacity="0.1" d="M120.886 32.6153C120.492 30.8831 120.6 29.0511 120.207 27.3219C119.813 25.5928 118.571 23.7777 116.891 23.7493C116.166 23.7493 115.318 24.0147 114.793 23.4639C114.479 23.1386 114.414 22.6078 114.177 22.2224C112.976 20.2776 109.326 21.265 107.822 22.2595C105.576 23.752 102.494 26.871 99.6179 26.1631C99.4781 26.497 99.3486 26.8336 99.2441 27.1804C102.18 28.0963 105.359 24.8603 107.656 23.331C109.155 22.3352 112.81 21.3335 114.011 23.2939C114.251 23.6907 114.314 24.2098 114.631 24.5353C115.153 25.0775 116.001 24.8007 116.725 24.8208C118.406 24.8507 119.636 26.6328 120.044 28.3934C120.452 30.154 120.329 32.0201 120.737 33.7792C120.709 33.3859 120.76 32.991 120.887 32.6177L120.886 32.6153Z" fill="black"/>
<path opacity="0.1" d="M129.134 30.5543C128.849 31.4274 128.053 32.2266 127.208 32.0468C126.364 31.867 125.95 30.9053 125.319 30.306C124.931 29.9363 124.436 29.6976 123.905 29.6233C123.373 29.5491 122.832 29.6431 122.357 29.8922C121.9 30.1655 121.523 30.5562 121.268 31.0238C121.012 31.4913 120.885 32.0188 120.902 32.5516C121.121 31.88 121.582 31.3137 122.194 30.9621C122.669 30.7138 123.21 30.6202 123.74 30.6944C124.271 30.7686 124.765 31.0069 125.154 31.376C125.787 31.978 126.218 32.9426 127.046 33.1168C127.873 33.2909 128.672 32.4974 128.969 31.6243C129.126 31.1117 129.227 30.5836 129.271 30.0492C129.236 30.2202 129.19 30.3888 129.134 30.5543Z" fill="black"/>
<path opacity="0.1" d="M131.712 23.0802C131.096 24.7067 129.976 26.1106 129.606 27.8227C129.532 28.168 129.489 28.522 129.446 28.8756C129.823 27.1635 130.933 25.771 131.549 24.1502C131.824 23.4163 131.995 22.648 132.058 21.8672C131.974 22.2796 131.858 22.6849 131.713 23.0799L131.712 23.0802Z" fill="black"/>
</g>
<path d="M57.0123 63.9934L56.9912 64.004C56.9351 64.0323 56.9126 64.1006 56.9408 64.1567L57.7657 65.7935C57.7939 65.8496 57.8623 65.8722 57.9184 65.8439L57.9395 65.8333C57.9956 65.805 58.0181 65.7367 57.9898 65.6806L57.165 64.0437C57.1367 63.9877 57.0684 63.9651 57.0123 63.9934Z" fill="#3A3768"/>
<path d="M54.6734 60.8512L48.4042 64.0104C48.0736 64.177 47.9407 64.58 48.1073 64.9105L55.1522 78.8908C55.3188 79.2213 55.7217 79.3543 56.0523 79.1877L62.3215 76.0285C62.6521 75.8619 62.785 75.4589 62.6184 75.1284L55.5735 61.1481C55.407 60.8176 55.004 60.6846 54.6734 60.8512Z" fill="#444444"/>
<path d="M53.8297 61.7615C53.7933 61.7777 53.7607 61.8014 53.734 61.8311C53.7073 61.8607 53.6871 61.8956 53.6748 61.9335C53.6624 61.9714 53.6581 62.0115 53.6622 62.0512C53.6662 62.0909 53.6786 62.1293 53.6984 62.1639L53.7283 62.2181C53.748 62.2528 53.7602 62.2914 53.7641 62.3312C53.768 62.371 53.7635 62.4112 53.7508 62.4491C53.7382 62.487 53.7177 62.5219 53.6908 62.5514C53.6638 62.581 53.6309 62.6045 53.5943 62.6205L50.4298 64.2156C50.3952 64.2354 50.3568 64.2477 50.3171 64.2518C50.2774 64.2559 50.2373 64.2516 50.1994 64.2392C50.1615 64.2268 50.1266 64.2067 50.097 64.18C50.0673 64.1533 50.0436 64.1207 50.0273 64.0842L49.9974 64.0271C49.9812 63.9907 49.9575 63.9581 49.9278 63.9314C49.8982 63.9047 49.8633 63.8845 49.8254 63.8721C49.7874 63.8597 49.7473 63.8554 49.7077 63.8595C49.668 63.8636 49.6296 63.8759 49.595 63.8957L48.9786 64.2039C48.9111 64.2375 48.8508 64.2842 48.8014 64.3412C48.752 64.3982 48.7144 64.4645 48.6908 64.5361C48.6672 64.6078 48.658 64.6834 48.6638 64.7587C48.6696 64.8339 48.6903 64.9072 48.7246 64.9744L55.4568 78.3375C55.4904 78.4051 55.5371 78.4653 55.5941 78.5147C55.6512 78.5641 55.7174 78.6017 55.7891 78.6253C55.8607 78.6489 55.9364 78.6581 56.0116 78.6523C56.0868 78.6465 56.1601 78.6259 56.2273 78.5915L61.749 75.8089C61.8161 75.7753 61.876 75.7287 61.9252 75.6719C61.9743 75.6151 62.0118 75.5492 62.0354 75.4779C62.059 75.4066 62.0683 75.3313 62.0627 75.2564C62.0572 75.1815 62.0369 75.1084 62.003 75.0414L55.2794 61.6762C55.2456 61.6093 55.1988 61.5497 55.1419 61.5008C55.085 61.452 55.019 61.4149 54.9477 61.3916C54.8764 61.3682 54.8013 61.3592 54.7265 61.365C54.6517 61.3707 54.5788 61.3912 54.5119 61.4251L53.8297 61.7615Z" fill="#D1D1D1"/>
<path d="M51.7275 0H0.0878372V39.1749H30.8046L42.8241 51.1945V39.1749H51.7275V0Z" fill="#4659FF"/>
<path d="M22.7028 23.1863C22.507 23.3851 22.1863 23.3851 21.9905 23.1863L18.3847 19.5267C17.993 19.1292 17.3517 19.1292 16.96 19.5267L16.8058 19.6832C16.4222 20.0725 16.4222 20.6976 16.8058 21.0869L21.9905 26.349C22.1863 26.5478 22.507 26.5478 22.7028 26.349L35.0102 13.8579C35.3938 13.4686 35.3938 12.8435 35.0102 12.4542L34.856 12.2977C34.4643 11.9001 33.823 11.9001 33.4313 12.2977L22.7028 23.1863Z" fill="white"/>
</svg>
